<svg version="1.1" id="_x34_04" xmlns="http://www.w3.org/2000/svg" xmlns:xlink="http://www.w3.org/1999/xlink" x="0px" y="0px"
 viewBox="0 0 294.687 191.728" style="enable-background:new 0 0 294.687 191.728;" xml:space="preserve">
<g>
  <path d="M294.687,139.525c0-24.242-18.389-44.263-41.949-46.867C252.317,41.495,210.566,0,159.306,0
    c-32.373,0-62.671,17.003-79.619,44.522c-1.976-0.158-3.963-0.245-5.961-0.245C33.073,44.277,0,77.35,0,118.002
    c0,40.652,33.073,73.726,73.725,73.726c8.597,0,51.042-1.301,92.09-2.559c38.505-1.181,74.874-2.295,81.709-2.295
    c26.005,0,47.162-21.156,47.162-47.161c0-0.051-0.003-0.101-0.004-0.152C294.683,139.549,294.687,139.537,294.687,139.525z
     M247.524,179.874c-6.942,0-43.363,1.116-81.923,2.298c-40.996,1.257-83.387,2.556-91.876,2.556
    C36.933,184.728,7,154.795,7,118.002C7,81.21,36.933,51.277,73.725,51.277c1.146,0,2.316,0.037,3.498,0.101
    c0.112,0.006,0.224,0.012,0.336,0.019c1.191,0.07,2.394,0.169,3.605,0.303l0.698,0.078c10.435,1.268,20.393,4.965,29.167,10.893
    c1.604,1.083,3.778,0.66,4.86-0.941c1.082-1.602,0.661-3.778-0.941-4.86c-8.389-5.667-17.752-9.496-27.589-11.334
    C103.314,21.643,130.414,7,159.306,7c47.315,0,85.865,38.214,86.424,85.398c-4.324,0.162-8.579,0.908-12.673,2.227
    c-1.84,0.593-2.851,2.565-2.258,4.405s2.564,2.853,4.404,2.258c3.36-1.082,6.851-1.707,10.401-1.874l-0.001,0.046l3.467,0.131
    c21.654,0.818,38.617,18.442,38.617,40.122C287.687,161.857,269.67,179.874,247.524,179.874z"/>
  <path d="M115.643,128.415c0.683,0.684,1.579,1.025,2.475,1.025s1.792-0.342,2.475-1.025c1.367-1.366,1.367-3.583,0-4.949
    l-6.455-6.455l6.455-6.455c1.367-1.366,1.367-3.583,0-4.949c-1.366-1.366-3.583-1.366-4.95,0l-6.456,6.455l-6.456-6.455
    c-1.366-1.367-3.583-1.367-4.95,0c-1.367,1.366-1.367,3.583,0,4.949l6.455,6.455l-6.455,6.455c-1.367,1.366-1.367,3.583,0,4.949
    c0.684,0.684,1.579,1.025,2.475,1.025c0.896,0,1.792-0.342,2.475-1.025l6.456-6.455L115.643,128.415z"/>
  <path d="M159.365,128.415c0.684,0.684,1.579,1.025,2.475,1.025s1.791-0.342,2.475-1.025l6.456-6.455l6.456,6.455
    c0.684,0.684,1.579,1.025,2.475,1.025s1.792-0.342,2.475-1.025c1.367-1.366,1.367-3.583,0-4.949l-6.455-6.455l6.455-6.455
    c1.367-1.366,1.367-3.583,0-4.949c-1.367-1.367-3.582-1.367-4.949,0l-6.456,6.455l-6.456-6.455c-1.367-1.367-3.584-1.367-4.949,0
    c-1.367,1.366-1.367,3.583,0,4.949l6.455,6.455l-6.455,6.455C157.998,124.832,157.998,127.049,159.365,128.415z"/>
  <path d="M179.886,145.925l-66.337,12.061c-1.902,0.346-3.164,2.168-2.817,4.069c0.307,1.69,1.78,2.875,3.439,2.875
    c0.208,0,0.418-0.019,0.63-0.058l66.337-12.061c1.902-0.346,3.163-2.168,2.817-4.069C183.61,146.84,181.79,145.573,179.886,145.925
    z"/>
</g>
</svg>
