<svg version="1.1" id="Ebene_1" xmlns="http://www.w3.org/2000/svg" xmlns:xlink="http://www.w3.org/1999/xlink" x="0px" y="0px"
	 viewBox="0 0 67 95" style="enable-background:new 0 0 67 95;" xml:space="preserve">
<path style="fill:#7A7A7A;" d="M48,0H5.897C2.64,0,0,2.64,0,5.897v83.206C0,92.36,2.64,95,5.897,95h55.206
	C64.36,95,67,92.36,67,89.103V19L48,0z M47.5,3.743L63.257,19.5H51.155c-2.015,0-3.655-1.64-3.655-3.655V3.743z M61.103,92H5.897
	C4.3,92,3,90.7,3,89.103V5.897C3,4.299,4.3,3,5.897,3H44.5v12.845c0,3.669,2.985,6.655,6.655,6.655H64v66.603
	C64,90.7,62.7,92,61.103,92z"/>
<g>
	<path style="fill:#7A7A7A;" d="M23.255,47.76c0,1.132-0.177,2.135-0.53,3.007s-0.867,1.607-1.542,2.205s-1.503,1.052-2.485,1.363
		c-0.981,0.312-2.137,0.468-3.467,0.468h-1.683v6.436c0,0.104-0.034,0.197-0.101,0.28c-0.068,0.083-0.179,0.15-0.335,0.202
		c-0.156,0.053-0.364,0.094-0.624,0.125s-0.592,0.047-0.997,0.047c-0.395,0-0.725-0.016-0.989-0.047
		c-0.265-0.031-0.476-0.072-0.631-0.125c-0.156-0.052-0.265-0.119-0.327-0.202s-0.093-0.177-0.093-0.28V43.101
		c0-0.488,0.127-0.854,0.381-1.099c0.254-0.244,0.59-0.366,1.005-0.366h4.752c0.478,0,0.932,0.019,1.363,0.055
		c0.431,0.037,0.948,0.114,1.55,0.234s1.213,0.34,1.831,0.662c0.618,0.322,1.145,0.73,1.582,1.223
		c0.436,0.494,0.769,1.07,0.997,1.729S23.255,46.939,23.255,47.76z M18.97,48.056c0-0.707-0.125-1.288-0.374-1.745
		c-0.25-0.457-0.556-0.795-0.919-1.013c-0.364-0.218-0.746-0.356-1.146-0.413s-0.813-0.086-1.239-0.086h-1.745v6.841h1.839
		c0.654,0,1.202-0.089,1.644-0.265c0.441-0.177,0.802-0.423,1.083-0.741c0.281-0.316,0.494-0.696,0.639-1.137
		C18.897,49.056,18.97,48.575,18.97,48.056z"/>
	<path style="fill:#7A7A7A;" d="M43.184,51.422c0,1.849-0.24,3.43-0.725,4.744c-0.482,1.314-1.176,2.387-2.08,3.218
		c-0.903,0.831-2.002,1.441-3.295,1.831s-2.833,0.584-4.62,0.584h-4.814c-0.343,0-0.631-0.102-0.865-0.304
		c-0.234-0.203-0.351-0.532-0.351-0.989V42.929c0-0.457,0.117-0.787,0.351-0.989c0.233-0.203,0.522-0.304,0.865-0.304h5.173
		c1.797,0,3.321,0.21,4.573,0.631c1.252,0.42,2.306,1.044,3.163,1.87c0.857,0.826,1.51,1.847,1.955,3.062
		C42.961,48.414,43.184,49.822,43.184,51.422z M38.946,51.562c0-0.956-0.112-1.844-0.335-2.665c-0.223-0.82-0.582-1.532-1.075-2.135
		c-0.494-0.602-1.127-1.072-1.901-1.41c-0.774-0.337-1.789-0.506-3.046-0.506h-2.073v13.712h2.135c1.122,0,2.067-0.146,2.836-0.437
		c0.769-0.29,1.41-0.729,1.924-1.316s0.898-1.316,1.153-2.189C38.819,53.743,38.946,52.725,38.946,51.562z"/>
	<path style="fill:#7A7A7A;" d="M57.862,43.319c0,0.312-0.014,0.574-0.039,0.787c-0.026,0.213-0.068,0.382-0.125,0.506
		c-0.057,0.125-0.122,0.218-0.194,0.281c-0.073,0.062-0.156,0.093-0.25,0.093h-6.591v5.423h6.187c0.093,0,0.176,0.026,0.249,0.078
		c0.072,0.052,0.138,0.14,0.194,0.265c0.058,0.125,0.099,0.292,0.125,0.499c0.025,0.208,0.039,0.467,0.039,0.779
		c0,0.312-0.014,0.571-0.039,0.778c-0.026,0.208-0.067,0.38-0.125,0.515c-0.057,0.135-0.122,0.231-0.194,0.288
		c-0.073,0.058-0.156,0.086-0.249,0.086h-6.187v7.511c0,0.114-0.031,0.213-0.094,0.296c-0.062,0.083-0.174,0.153-0.335,0.21
		c-0.161,0.058-0.371,0.102-0.631,0.133s-0.592,0.047-0.997,0.047c-0.395,0-0.725-0.016-0.989-0.047
		c-0.266-0.031-0.476-0.075-0.631-0.133c-0.156-0.057-0.268-0.127-0.336-0.21c-0.067-0.083-0.101-0.182-0.101-0.296V42.929
		c0-0.457,0.116-0.787,0.351-0.989c0.233-0.203,0.521-0.304,0.864-0.304h9.489c0.094,0,0.177,0.029,0.25,0.086
		c0.072,0.057,0.138,0.151,0.194,0.28c0.057,0.13,0.099,0.304,0.125,0.522C57.849,42.742,57.862,43.007,57.862,43.319z"/>
</g>
</svg>
