<?xml version="1.0" encoding="utf-8"?>
<!-- Generator: Adobe Illustrator 16.0.0, SVG Export Plug-In . SVG Version: 6.00 Build 0)  -->
<!DOCTYPE svg PUBLIC "-//W3C//DTD SVG 1.1//EN" "http://www.w3.org/Graphics/SVG/1.1/DTD/svg11.dtd">
<svg version="1.1" id="Ebene_1" xmlns="http://www.w3.org/2000/svg" xmlns:xlink="http://www.w3.org/1999/xlink" x="0px" y="0px"
	 width="147.401px" height="87.874px" viewBox="0 0 147.401 87.874" enable-background="new 0 0 147.401 87.874"
	 xml:space="preserve">
<polyline fill-rule="evenodd" clip-rule="evenodd" fill="#FFFFFF" points="82.51,11.853 87.109,33.092 87.212,33.525 87.482,33.964 
	87.861,34.291 88.248,34.473 105.042,41.358 105.198,41.281 105.292,41.17 105.35,40.942 105.357,40.481 105.286,39.992 
	105.188,39.538 99.789,14.61 99.671,14.144 99.432,13.682 99.116,13.418 98.582,13.226 83.36,10.561 83.017,10.553 82.821,10.569 
	82.656,10.609 82.512,10.712 82.413,10.861 82.382,10.958 82.406,11.376 82.51,11.853 "/>
<polyline fill-rule="evenodd" clip-rule="evenodd" fill="#FFFFFF" points="119.534,3.734 119.954,3.758 120.02,3.827 119.927,3.971 
	119.459,4.156 100.349,11.904 99.98,12 99.561,12.059 99.153,11.988 85.173,9.836 84.128,9.617 83.945,9.498 83.877,9.42 
	83.84,9.33 83.835,9.22 83.895,9.11 84.156,8.944 99.888,3.4 100.696,3.225 101.55,3.139 102.555,3.129 117.335,3.669 
	119.534,3.734 "/>
<path fill-rule="evenodd" clip-rule="evenodd" fill="#FFFFFF" d="M127.148,29.304l-0.194-0.906l-4.92-22.755l-0.156-0.373
	l-0.192-0.315l-0.287-0.204l-0.281-0.03l-0.396,0.086l-18.103,7.411l-0.981,0.488l-0.519,0.568l-0.227,0.721l0.084,0.729
	l5.315,24.377l0.232,0.972l0.151,0.308l0.169,0.172l0.256,0.178l0.22,0.05l0.26-0.03l18.477-9.615l0.621-0.324l0.23-0.207
	l0.209-0.335l0.069-0.457L127.148,29.304z M119.128,30.845l-5.589,2.377l-1.465-6.776l-6.353,2.62l-1.308-6.039l6.354-2.622
	l-1.499-6.925l5.588-2.375l1.497,6.926l6.321-2.77l1.306,6.041l-6.321,2.767L119.128,30.845z"/>
<path fill="#FFFFFF" d="M144.472,23.662c-1.052-5.2-8.079-8.587-18.099-9.592l0.001,0.159c8.777,1.05,14.853,4.098,15.783,8.696
	c1.653,8.173-13.569,18.149-34.002,22.283c-20.433,4.134-38.336,0.859-39.989-7.314c-0.773-3.826,2.159-8.047,7.585-11.878
	l-0.001-0.008l-0.004-0.023l-0.21-0.141c-2.725,1.808-4.931,3.713-6.519,5.642c-2.21,2.686-3.219,5.415-2.699,7.986
	c1.782,8.811,21.771,13.462,43.352,9.096C131.252,44.203,146.254,32.472,144.472,23.662"/>
<polyline fill="#FFFFFF" points="72.932,24.095 75.536,25.844 75.751,26.016 76.341,29.322 80.83,22.669 72.932,24.095 "/>
<path fill="#FFFFFF" d="M22.171,47.074c-0.454-0.334-1.054-0.667-1.614-0.667c-0.934,0-1.454,0.547-1.454,1.267
	c0,0.668,0.574,1.161,1.775,2.028c1.28,0.935,2.028,1.788,2.028,2.989c0,1.48-1.401,2.441-2.896,2.441
	c-0.894,0-1.961-0.32-2.628-0.974l0.574-0.773c0.547,0.386,1.147,0.812,2.028,0.812c0.921,0,1.628-0.493,1.628-1.534
	c0-1.174-1.401-1.935-2.161-2.495c-0.774-0.6-1.642-1.174-1.642-2.495c0-1.254,1.215-2.201,2.669-2.201
	c0.974,0,1.788,0.347,2.308,0.935L22.171,47.074"/>
<path fill="#FFFFFF" d="M31.652,45.633c0.761,2.521,1.521,5.043,2.269,7.886h0.026c0.761-2.882,1.521-5.457,2.295-8.019l1.041,0.186
	l-2.896,9.287H33.24c-0.747-2.481-1.481-4.964-2.215-7.712h-0.026c-0.734,2.748-1.495,5.23-2.242,7.712h-1.147l-2.749-9.206
	l1.228-0.267c0.734,2.562,1.467,5.137,2.188,8.019h0.027c0.747-2.843,1.521-5.364,2.281-7.886H31.652"/>
<polyline fill="#FFFFFF" points="39.651,54.973 39.651,45.633 40.945,45.633 40.945,54.973 39.651,54.973 "/>
<path fill="#FFFFFF" d="M48.837,47.074c-0.454-0.334-1.054-0.667-1.614-0.667c-0.934,0-1.455,0.547-1.455,1.267
	c0,0.668,0.574,1.161,1.774,2.028c1.281,0.935,2.028,1.788,2.028,2.989c0,1.48-1.401,2.441-2.896,2.441
	c-0.894,0-1.961-0.32-2.628-0.974l0.574-0.773c0.547,0.386,1.147,0.812,2.028,0.812c0.921,0,1.628-0.493,1.628-1.534
	c0-1.174-1.401-1.935-2.162-2.495c-0.774-0.6-1.641-1.174-1.641-2.495c0-1.254,1.214-2.201,2.668-2.201
	c0.974,0,1.788,0.347,2.308,0.935L48.837,47.074"/>
<path fill="#FFFFFF" d="M57.05,47.074c-0.454-0.334-1.054-0.667-1.614-0.667c-0.934,0-1.454,0.547-1.454,1.267
	c0,0.668,0.573,1.161,1.774,2.028c1.281,0.935,2.028,1.788,2.028,2.989c0,1.48-1.401,2.441-2.896,2.441
	c-0.894,0-1.962-0.32-2.629-0.974l0.574-0.773c0.547,0.386,1.147,0.812,2.028,0.812c0.921,0,1.628-0.493,1.628-1.534
	c0-1.174-1.401-1.935-2.162-2.495c-0.774-0.6-1.641-1.174-1.641-2.495c0-1.254,1.214-2.201,2.668-2.201
	c0.974,0,1.788,0.347,2.309,0.935L57.05,47.074"/>
<polyline fill="#FFFFFF" points="2.786,71.484 2.786,59.032 4.512,59.032 4.512,71.484 2.786,71.484 "/>
<path fill="#FFFFFF" d="M18.778,71.484h-1.352c-2.704-3.237-7.348-8.823-8.095-9.908H9.297v9.908H7.873V59.032h1.281
	c2.74,3.237,7.329,8.681,8.165,9.927h0.036v-9.927h1.423V71.484"/>
<path fill="#FFFFFF" d="M33.044,71.484h-1.352c-2.705-3.237-7.348-8.823-8.095-9.908h-0.036v9.908h-1.423V59.032h1.281
	c2.74,3.237,7.329,8.681,8.166,9.927h0.036v-9.927h1.423V71.484"/>
<path fill="#FFFFFF" d="M46.315,65.045c0-2.33-1.246-4.98-4.323-4.98s-4.323,2.65-4.323,4.98c0,2.438,1.104,5.408,4.323,5.408
	C45.212,70.453,46.315,67.482,46.315,65.045L46.315,65.045z M35.765,65.045c0-3.486,2.633-6.227,6.227-6.227s6.227,2.74,6.227,6.227
	c0,3.718-2.384,6.653-6.227,6.653S35.765,68.763,35.765,65.045"/>
<path fill="#FFFFFF" d="M54.221,71.484l-4.607-12.311l1.761-0.319c1.21,3.397,2.401,6.813,3.593,10.638h0.036
	c1.245-3.824,2.526-7.24,3.79-10.638l1.547,0.213l-4.963,12.417H54.221"/>
<path fill="#FFFFFF" d="M67.531,66.575c-0.623-1.726-1.228-3.451-1.851-5.692h-0.035c-0.641,2.241-1.299,3.967-1.975,5.692H67.531
	L67.531,66.575z M66.57,59.032l4.644,12.452h-1.993l-1.28-3.664h-4.75l-1.334,3.664h-1.672l5.07-12.452H66.57"/>
<polyline fill="#FFFFFF" points="75.129,71.484 75.129,60.277 71.144,60.277 71.144,59.032 80.857,59.032 80.857,60.277 
	76.854,60.277 76.854,71.484 75.129,71.484 "/>
<polyline fill="#FFFFFF" points="83.588,71.484 83.588,59.032 85.313,59.032 85.313,71.484 83.588,71.484 "/>
<path fill="#FFFFFF" d="M99.101,65.045c0-2.33-1.245-4.98-4.323-4.98c-3.077,0-4.322,2.65-4.322,4.98
	c0,2.438,1.103,5.408,4.322,5.408C97.998,70.453,99.101,67.482,99.101,65.045L99.101,65.045z M88.552,65.045
	c0-3.486,2.633-6.227,6.226-6.227c3.594,0,6.227,2.74,6.227,6.227c0,3.718-2.384,6.653-6.227,6.653
	C90.936,71.698,88.552,68.763,88.552,65.045"/>
<path fill="#FFFFFF" d="M115.147,71.484h-1.353c-2.704-3.237-7.347-8.823-8.094-9.908h-0.036v9.908h-1.423V59.032h1.281
	c2.739,3.237,7.329,8.681,8.165,9.927h0.036v-9.927h1.423V71.484"/>
<polyline fill="#FFFFFF" points="59.578,76.178 56.269,76.178 56.269,79.728 59.511,79.728 59.511,80.661 56.269,80.661 
	56.269,84.584 54.975,84.584 54.975,75.245 59.578,75.245 59.578,76.178 "/>
<path fill="#FFFFFF" d="M70.146,79.754c0-1.747-0.935-3.735-3.242-3.735c-2.309,0-3.243,1.988-3.243,3.735
	c0,1.828,0.828,4.057,3.243,4.057C69.318,83.811,70.146,81.582,70.146,79.754L70.146,79.754z M62.234,79.754
	c0-2.615,1.974-4.67,4.67-4.67c2.694,0,4.669,2.055,4.669,4.67c0,2.789-1.787,4.99-4.669,4.99
	C64.022,84.744,62.234,82.543,62.234,79.754"/>
<path fill="#FFFFFF" d="M75.952,79.78h0.733c1.655,0,1.962-1.227,1.962-2.014c0-1.147-0.721-1.589-1.588-1.589h-1.107V79.78
	L75.952,79.78z M74.658,75.245h2.668c1.521,0,2.709,0.787,2.709,2.4c0,1.375-0.668,2.148-1.562,2.723l2.322,3.976l-1.309,0.4
	l-2.161-4.029h-1.374v3.869h-1.294V75.245"/>
<path fill="#FFFFFF" d="M84.559,75.245v5.656c0,1.935,0.721,2.949,2.389,2.949c1.748,0,2.335-1.388,2.335-2.722v-5.884h1.214v5.91
	c0,2.095-1.294,3.589-3.549,3.589c-2.629,0-3.683-1.388-3.683-3.789v-5.71H84.559"/>
<path fill="#FFFFFF" d="M104.067,84.584h-1.294v-7.604h-0.027c-0.373,1.094-2.494,5.216-3.749,7.604h-0.521
	c-1.16-2.389-3.095-6.378-3.455-7.604h-0.027v7.604h-1.067v-9.339h1.388c1.201,2.481,2.402,4.976,3.59,7.604
	c1.32-2.629,2.641-5.123,3.949-7.604h1.214V84.584"/>
</svg>
