<?xml version="1.0" encoding="utf-8"?>
<!-- Generator: Adobe Illustrator 16.0.0, SVG Export Plug-In . SVG Version: 6.00 Build 0)  -->
<!DOCTYPE svg PUBLIC "-//W3C//DTD SVG 1.1//EN" "http://www.w3.org/Graphics/SVG/1.1/DTD/svg11.dtd">
<svg version="1.1" id="Ebene_1" xmlns="http://www.w3.org/2000/svg" xmlns:xlink="http://www.w3.org/1999/xlink" x="0px" y="0px"
	 width="119.834px" height="141.73px" viewBox="0 0 119.834 141.73" enable-background="new 0 0 119.834 141.73"
	 xml:space="preserve">
<g>
	<path fill="#E1E1E2" d="M114.234,26.588H99.174v-3.544c0-2.932-2.376-5.313-5.313-5.313s-5.313,2.382-5.313,5.313v3.544H31.424
		v-3.544c0-2.932-2.377-5.313-5.314-5.313c-2.937,0-5.313,2.382-5.313,5.313v3.544H5.146c-2.938,0-5.313,2.382-5.313,5.313v86.784
		c0,2.933,2.376,5.314,5.313,5.314h109.089c2.937,0,5.312-2.382,5.312-5.314V31.901C119.547,28.97,117.171,26.588,114.234,26.588z
		 M20.796,37.216v3.539c0,2.932,2.377,5.314,5.313,5.314c2.938,0,5.314-2.382,5.314-5.314v-3.539h57.123v3.539
		c0,2.932,2.376,5.314,5.313,5.314s5.313-2.382,5.313-5.314v-3.539h9.746v20.736H10.459V37.216H20.796z M10.459,113.373V63.266
		h98.461v50.107H10.459z"/>
	<rect x="19.696" y="74.054" fill="#E1E1E2" width="10.306" height="10.311"/>
	<rect x="37.537" y="74.054" fill="#E1E1E2" width="10.306" height="10.311"/>
	<rect x="55.382" y="74.054" fill="#E1E1E2" width="10.312" height="10.311"/>
	<rect x="73.218" y="74.054" fill="#E1E1E2" width="10.315" height="10.311"/>
	<rect x="91.069" y="74.054" fill="#E1E1E2" width="10.294" height="10.311"/>
	<rect x="19.696" y="90.612" fill="#E1E1E2" width="10.306" height="10.307"/>
	<rect x="37.537" y="90.612" fill="#E1E1E2" width="10.306" height="10.307"/>
	<rect x="55.382" y="90.612" fill="#E1E1E2" width="10.312" height="10.307"/>
	<rect x="73.218" y="90.612" fill="#E1E1E2" width="10.315" height="10.307"/>
	<rect x="91.069" y="90.612" fill="#E1E1E2" width="10.294" height="10.307"/>
</g>
</svg>
