<?xml version="1.0" encoding="utf-8"?>
<!-- Generator: Adobe Illustrator 16.0.0, SVG Export Plug-In . SVG Version: 6.00 Build 0)  -->
<!DOCTYPE svg PUBLIC "-//W3C//DTD SVG 1.1//EN" "http://www.w3.org/Graphics/SVG/1.1/DTD/svg11.dtd">
<svg version="1.1" id="Ebene_1" xmlns="http://www.w3.org/2000/svg" xmlns:xlink="http://www.w3.org/1999/xlink" x="0px" y="0px"
	 width="40px" height="40px" viewBox="0 0 40 40" enable-background="new 0 0 40 40" xml:space="preserve">
<g>
	<path fill="#FFFFFF" d="M20.028,24.146c2.294,0,4.165-1.867,4.165-4.163c0-0.737-0.199-1.429-0.538-2.03
		c-0.077-0.137-0.158-0.271-0.25-0.397c-0.759-1.049-1.986-1.735-3.376-1.735c-1.389,0-2.618,0.687-3.375,1.735
		c-0.091,0.126-0.173,0.26-0.25,0.396c-0.339,0.602-0.538,1.292-0.538,2.03C15.864,22.279,17.731,24.146,20.028,24.146z"/>
	<polygon fill="#FFFFFF" points="29.118,14.89 29.118,11.402 29.118,10.88 28.597,10.883 25.109,10.893 25.123,14.902 	"/>
	<path fill="#FFFFFF" d="M26.248,18.224c0.161,0.56,0.249,1.15,0.249,1.76c0,3.567-2.902,6.469-6.469,6.469
		s-6.468-2.901-6.468-6.469c0-0.61,0.087-1.2,0.248-1.759c0.064-0.228,0.139-0.451,0.227-0.667h-3.531v1.227v8.458
		c0,1.251,1.017,2.268,2.267,2.268h14.514c1.251,0,2.268-1.017,2.268-2.268v-8.458v-1.227h-3.533
		C26.107,17.773,26.183,17.997,26.248,18.224z"/>
	<path fill="#FFFFFF" d="M20.028,0.012c-11.03,0-19.972,8.941-19.972,19.971c0,11.029,8.941,19.972,19.972,19.972
		C31.057,39.955,40,31.013,40,19.983C40,8.954,31.057,0.012,20.028,0.012z M31.856,17.557v1.78v7.904
		c0,2.521-2.051,4.572-4.572,4.572H12.771c-2.521,0-4.571-2.052-4.571-4.572v-7.907v-1.778v-4.831c0-2.52,2.05-4.571,4.571-4.571
		h14.514c2.521,0,4.572,2.051,4.572,4.571V17.557z"/>
</g>
</svg>
