<?xml version="1.0" encoding="utf-8"?>
<!-- Generator: Adobe Illustrator 16.0.0, SVG Export Plug-In . SVG Version: 6.00 Build 0)  -->
<!DOCTYPE svg PUBLIC "-//W3C//DTD SVG 1.1//EN" "http://www.w3.org/Graphics/SVG/1.1/DTD/svg11.dtd">
<svg version="1.1" id="Ebene_1" xmlns="http://www.w3.org/2000/svg" xmlns:xlink="http://www.w3.org/1999/xlink" x="0px" y="0px"
	 width="40px" height="40px" viewBox="0 0 40 40" enable-background="new 0 0 40 40" xml:space="preserve">
<path fill="#FFFFFF" d="M20.001,0C8.945,0-0.019,8.962-0.019,20.019c0,11.055,8.964,20.018,20.02,20.018S40.02,31.074,40.02,20.019
	C40.02,8.962,31.057,0,20.001,0z M29.432,16.39c0.01,0.206,0.014,0.414,0.014,0.62c0,0.952-0.113,1.925-0.332,2.891
	c-1.232,5.466-5.906,10.735-13.512,10.735c-2.745,0-5.303-0.793-7.458-2.151c0.382,0.044,0.768,0.067,1.162,0.067
	c2.281,0,4.377-0.766,6.042-2.052c-2.128-0.038-3.924-1.423-4.545-3.325c0.298,0.057,0.603,0.087,0.915,0.087
	c0.445,0,0.874-0.06,1.283-0.168c-1.639-0.325-2.976-1.46-3.57-2.962c-0.213-0.539-0.333-1.123-0.333-1.736c0-0.02,0-0.04,0-0.06
	c0.656,0.358,1.408,0.574,2.204,0.599c-1.304-0.859-2.165-2.326-2.165-3.986c0-0.877,0.242-1.701,0.66-2.407
	c2.399,2.896,5.984,4.804,10.027,5.004c-0.081-0.352-0.125-0.715-0.125-1.091c0-2.645,2.179-4.79,4.864-4.79
	c1.398,0,2.664,0.582,3.551,1.512c1.107-0.214,2.15-0.613,3.09-1.164c-0.363,1.12-1.135,2.058-2.141,2.65
	c0.986-0.116,1.924-0.372,2.795-0.753C31.207,14.872,30.381,15.715,29.432,16.39z"/>
</svg>
