<?xml version="1.0" encoding="utf-8"?>
<!-- Generator: Adobe Illustrator 16.0.0, SVG Export Plug-In . SVG Version: 6.00 Build 0)  -->
<!DOCTYPE svg PUBLIC "-//W3C//DTD SVG 1.1//EN" "http://www.w3.org/Graphics/SVG/1.1/DTD/svg11.dtd">
<svg version="1.1" id="Ebene_1" xmlns="http://www.w3.org/2000/svg" xmlns:xlink="http://www.w3.org/1999/xlink" x="0px" y="0px"
	 width="60px" height="60px" viewBox="0 0 60 60" enable-background="new 0 0 60 60" xml:space="preserve">
<rect fill="#B41C21" width="60" height="59.999"/>
<g>
	<defs>
		<rect id="SVGID_1_" width="60" height="60"/>
	</defs>
	<clipPath id="SVGID_2_">
		<use xlink:href="#SVGID_1_"  overflow="visible"/>
	</clipPath>
	<path clip-path="url(#SVGID_2_)" fill="none" stroke="#FFFFFF" stroke-width="1.01" stroke-miterlimit="10" d="M43.948,21.009
		c0,10.908-8.236,8.373-8.416,22.279C35.509,45.111,24.515,45,24.489,43.351c-0.192-12.459-8.438-11.307-8.438-22.342
		c0-7.723,6.245-13.984,13.948-13.984C37.704,7.025,43.948,13.286,43.948,21.009z"/>
	
		<path clip-path="url(#SVGID_2_)" fill="none" stroke="#FFFFFF" stroke-width="0.505" stroke-linecap="round" stroke-linejoin="round" stroke-miterlimit="10" d="
		M35.261,52.1c0,0-1.069,1.249-5.261,1.249S24.739,52.1,24.739,52.1v-8.004c0,0,0.942,0.796,5.261,0.796
		c4.318,0,5.261-0.796,5.261-0.796V52.1z"/>
	<path clip-path="url(#SVGID_2_)" fill="#FFFFFF" d="M35.705,44.87c0,0,0.01,0.01,0.03,0.03c0.03,0.029,0.072,0.078,0.105,0.134
		c0.07,0.107,0.163,0.335,0.091,0.58c-0.063,0.239-0.226,0.447-0.42,0.603c-0.192,0.168-0.426,0.3-0.679,0.43
		c-0.256,0.127-0.536,0.243-0.834,0.35c-0.298,0.116-0.619,0.199-0.948,0.306c-0.661,0.183-1.371,0.347-2.083,0.496
		c-1.429,0.28-2.862,0.49-3.934,0.671c-0.536,0.087-0.986,0.14-1.3,0.186c-0.314,0.044-0.493,0.07-0.493,0.07
		s0.178-0.037,0.489-0.096c0.311-0.064,0.756-0.139,1.289-0.255c1.061-0.237,2.482-0.52,3.88-0.874
		c0.7-0.184,1.391-0.384,2.029-0.597c0.312-0.12,0.623-0.218,0.898-0.343c0.283-0.117,0.541-0.24,0.766-0.367
		c0.221-0.129,0.42-0.257,0.553-0.389c0.143-0.126,0.21-0.252,0.222-0.318c0.017-0.067-0.012-0.093-0.027-0.123
		c-0.012-0.016-0.015-0.015-0.015-0.016c-0.001-0.003-0.02-0.02-0.017-0.017l-0.021-0.017c-0.124-0.111-0.133-0.305-0.02-0.431
		c0.112-0.125,0.306-0.136,0.43-0.022C35.699,44.864,35.702,44.867,35.705,44.87"/>
	<path clip-path="url(#SVGID_2_)" fill="#FFFFFF" d="M35.705,46.316c0,0,0.01,0.01,0.03,0.028c0.03,0.033,0.072,0.08,0.105,0.137
		c0.07,0.106,0.163,0.335,0.091,0.581c-0.063,0.238-0.226,0.444-0.42,0.602c-0.192,0.166-0.426,0.299-0.679,0.429
		c-0.256,0.127-0.536,0.243-0.834,0.349c-0.298,0.116-0.619,0.2-0.948,0.306c-0.661,0.183-1.371,0.348-2.083,0.496
		c-1.429,0.282-2.862,0.49-3.934,0.67c-0.536,0.09-0.986,0.141-1.3,0.188c-0.314,0.044-0.493,0.068-0.493,0.068
		s0.178-0.034,0.489-0.094c0.311-0.062,0.756-0.138,1.289-0.255c1.061-0.237,2.482-0.521,3.88-0.873
		c0.7-0.185,1.391-0.386,2.029-0.596c0.312-0.12,0.623-0.221,0.898-0.345c0.283-0.117,0.541-0.24,0.766-0.367
		c0.221-0.13,0.42-0.259,0.553-0.389c0.143-0.126,0.21-0.252,0.222-0.317c0.017-0.068-0.012-0.095-0.027-0.124
		c-0.012-0.016-0.015-0.015-0.015-0.016c-0.001-0.003-0.02-0.021-0.017-0.018l-0.021-0.016c-0.124-0.113-0.133-0.306-0.02-0.432
		c0.112-0.124,0.306-0.134,0.43-0.021C35.699,46.311,35.702,46.313,35.705,46.316"/>
	<path clip-path="url(#SVGID_2_)" fill="#FFFFFF" d="M35.705,47.692c0,0,0.01,0.01,0.03,0.028c0.03,0.033,0.072,0.08,0.105,0.137
		c0.07,0.105,0.163,0.334,0.091,0.58c-0.063,0.238-0.226,0.445-0.42,0.602c-0.192,0.168-0.426,0.3-0.679,0.43
		c-0.256,0.127-0.536,0.243-0.834,0.349c-0.298,0.116-0.619,0.2-0.948,0.306c-0.661,0.182-1.371,0.348-2.083,0.496
		c-1.429,0.282-2.862,0.49-3.934,0.67c-0.536,0.089-0.986,0.142-1.3,0.187s-0.493,0.069-0.493,0.069s0.178-0.034,0.489-0.094
		c0.311-0.062,0.756-0.138,1.289-0.255c1.061-0.237,2.482-0.521,3.88-0.874c0.7-0.184,1.391-0.385,2.029-0.596
		c0.312-0.12,0.623-0.221,0.898-0.345c0.283-0.116,0.541-0.238,0.766-0.367c0.221-0.129,0.42-0.258,0.553-0.388
		c0.143-0.126,0.21-0.252,0.222-0.318c0.017-0.067-0.012-0.095-0.027-0.123c-0.012-0.016-0.015-0.015-0.015-0.016
		c-0.001-0.003-0.02-0.021-0.017-0.018l-0.021-0.016c-0.124-0.113-0.133-0.306-0.02-0.432c0.112-0.124,0.306-0.134,0.43-0.021
		C35.699,47.687,35.702,47.689,35.705,47.692"/>
	<path clip-path="url(#SVGID_2_)" fill="#FFFFFF" d="M35.705,49.068c0,0,0.01,0.01,0.03,0.03c0.03,0.03,0.072,0.078,0.105,0.135
		c0.07,0.106,0.163,0.334,0.091,0.58c-0.063,0.238-0.226,0.445-0.42,0.602c-0.192,0.168-0.426,0.3-0.679,0.43
		c-0.256,0.128-0.536,0.243-0.834,0.351c-0.298,0.114-0.619,0.198-0.948,0.303c-0.661,0.183-1.371,0.348-2.083,0.499
		c-1.429,0.28-2.862,0.488-3.934,0.667c-0.536,0.091-0.986,0.143-1.3,0.188s-0.493,0.071-0.493,0.071s0.178-0.037,0.489-0.096
		c0.311-0.064,0.756-0.139,1.289-0.255c1.061-0.236,2.482-0.521,3.88-0.874c0.7-0.183,1.391-0.385,2.029-0.596
		c0.312-0.12,0.623-0.219,0.898-0.345c0.283-0.115,0.541-0.238,0.766-0.366c0.221-0.13,0.42-0.259,0.553-0.389
		c0.143-0.126,0.21-0.251,0.222-0.318c0.017-0.068-0.012-0.093-0.027-0.123c-0.012-0.016-0.015-0.015-0.015-0.016
		c-0.001-0.003-0.02-0.019-0.017-0.016l-0.021-0.018c-0.124-0.112-0.133-0.306-0.02-0.432c0.112-0.124,0.306-0.134,0.43-0.021
		C35.699,49.062,35.702,49.065,35.705,49.068"/>
	<path clip-path="url(#SVGID_2_)" fill="#FFFFFF" d="M30.599,53.15c0.697-0.186,1.69-0.461,2.328-0.672
		c0.312-0.12,0.623-0.22,0.901-0.345c0.28-0.115,0.538-0.238,0.763-0.365c0.221-0.131,0.418-0.259,0.551-0.391
		c0.145-0.125,0.21-0.251,0.224-0.317c0.017-0.068-0.012-0.093-0.027-0.123c-0.012-0.016-0.015-0.014-0.015-0.016
		c-0.003-0.003-0.02-0.02-0.017-0.017l-0.019-0.018c-0.126-0.112-0.135-0.305-0.021-0.43c0.112-0.125,0.304-0.135,0.431-0.022
		c0,0.002,0.006,0.005,0.008,0.008c0,0,0.01,0.012,0.03,0.031c0.03,0.03,0.072,0.078,0.106,0.135c0.069,0.105,0.162,0.334,0.09,0.58
		c-0.063,0.238-0.226,0.445-0.42,0.602c-0.193,0.168-0.426,0.3-0.68,0.43c-0.255,0.128-0.533,0.243-0.835,0.351
		c-0.296,0.114-0.619,0.197-0.946,0.304c-0.662,0.184-1.373,0.347-2.085,0.497"/>
	<path clip-path="url(#SVGID_2_)" fill="#FFFFFF" d="M35.697,43.339c0.003,0.003,0.006,0.006,0.009,0.009
		c0,0,0.009,0.009,0.03,0.029c0.03,0.029,0.073,0.079,0.105,0.133c0.069,0.108,0.162,0.337,0.09,0.581
		c-0.062,0.24-0.226,0.446-0.42,0.603c-0.193,0.166-0.426,0.3-0.68,0.43c-0.255,0.127-0.535,0.244-0.833,0.35
		c-0.298,0.116-0.619,0.199-0.946,0.306c-0.663,0.183-1.373,0.348-2.085,0.495c-1.428,0.283-2.862,0.49-3.933,0.672
		c-0.536,0.087-0.986,0.14-1.301,0.186c-0.314,0.044-0.493,0.068-0.493,0.068s0.178-0.034,0.489-0.094
		c0.311-0.063,0.757-0.139,1.287-0.254c1.062-0.236,2.483-0.521,3.883-0.875c0.699-0.184,1.39-0.384,2.03-0.595
		c0.31-0.12,0.621-0.22,0.898-0.345c0.281-0.117,0.539-0.24,0.765-0.368c0.222-0.128,0.419-0.258,0.55-0.388
		c0.145-0.126,0.212-0.25,0.224-0.318c0.017-0.067-0.012-0.093-0.029-0.122c-0.01-0.016-0.014-0.016-0.014-0.017
		c0-0.005-0.021-0.02-0.016-0.018l-0.021-0.016"/>
	<path clip-path="url(#SVGID_2_)" fill="#FFFFFF" d="M33.051,44.417c-0.661,0.183-1.371,0.348-2.083,0.494
		c-1.429,0.284-2.862,0.49-3.934,0.672c-0.536,0.089-0.986,0.142-1.3,0.188c-0.314,0.043-0.493,0.067-0.493,0.067
		s0.178-0.033,0.489-0.095c0.311-0.062,0.756-0.137,1.289-0.253c1.061-0.237,2.482-0.521,3.88-0.873"/>
	<path clip-path="url(#SVGID_2_)" fill="#FFFFFF" d="M35.479,43.708c0,0.58-2.433,1.054-5.43,1.054c-3,0-5.431-0.474-5.431-1.054
		c0-0.582,2.431-1.052,5.431-1.052C33.047,42.656,35.479,43.126,35.479,43.708"/>
	<path clip-path="url(#SVGID_2_)" fill="#FFFFFF" d="M27.2,43.402c0,0-0.14-1.681-0.431-4.21c-0.148-1.263-0.335-2.735-0.56-4.31
		c-0.231-1.573-0.486-3.249-0.795-4.918c-0.144-0.836-0.312-1.666-0.479-2.485c-0.157-0.82-0.351-1.619-0.526-2.395
		c-0.166-0.778-0.385-1.515-0.561-2.224c-0.176-0.708-0.401-1.36-0.577-1.97c-0.171-0.614-0.396-1.153-0.562-1.644
		c-0.087-0.244-0.169-0.472-0.247-0.682c-0.088-0.206-0.17-0.395-0.244-0.564c-0.297-0.681-0.467-1.072-0.467-1.072
		s0.187,0.383,0.514,1.05c0.082,0.168,0.174,0.353,0.271,0.554c0.086,0.208,0.178,0.433,0.275,0.672
		c0.188,0.483,0.44,1.017,0.638,1.625c0.205,0.603,0.459,1.25,0.668,1.952c0.208,0.702,0.461,1.434,0.663,2.206
		c0.208,0.771,0.441,1.564,0.635,2.38c0.205,0.815,0.41,1.642,0.592,2.476c0.385,1.659,0.718,3.333,1.019,4.903
		c0.298,1.569,0.552,3.04,0.757,4.304c0.408,2.523,0.625,4.223,0.625,4.223c0.043,0.335-0.191,0.639-0.526,0.684
		c-0.334,0.044-0.64-0.191-0.683-0.523C27.201,43.425,27.2,43.411,27.2,43.402"/>
	<path clip-path="url(#SVGID_2_)" fill="#FFFFFF" d="M38.248,16.93c0,0-0.169,0.389-0.468,1.073
		c-0.073,0.169-0.156,0.357-0.246,0.564c-0.074,0.209-0.155,0.438-0.245,0.682c-0.165,0.49-0.39,1.027-0.56,1.642
		c-0.176,0.612-0.401,1.263-0.578,1.97c-0.176,0.708-0.396,1.445-0.56,2.224c-0.176,0.777-0.368,1.574-0.525,2.395
		c-0.168,0.817-0.336,1.649-0.48,2.485c-0.31,1.667-0.564,3.345-0.796,4.918c-0.225,1.575-0.41,3.046-0.558,4.31
		c-0.294,2.526-0.432,4.209-0.432,4.209c-0.027,0.334-0.321,0.584-0.657,0.559c-0.336-0.026-0.584-0.32-0.558-0.655
		c0.002-0.01,0.002-0.021,0.003-0.029c0,0,0.216-1.699,0.625-4.225c0.205-1.264,0.457-2.734,0.758-4.304
		c0.301-1.571,0.631-3.242,1.019-4.905c0.183-0.832,0.386-1.659,0.593-2.474c0.194-0.816,0.426-1.608,0.636-2.378
		c0.199-0.774,0.453-1.506,0.661-2.208c0.21-0.702,0.464-1.349,0.668-1.954c0.2-0.607,0.452-1.14,0.64-1.623
		c0.099-0.24,0.189-0.466,0.275-0.673c0.099-0.201,0.19-0.386,0.271-0.552C38.062,17.312,38.248,16.93,38.248,16.93"/>
	<path clip-path="url(#SVGID_2_)" fill="#FFFFFF" d="M25.755,16.784c0,0-0.006-0.094-0.016-0.259
		c-0.028-0.161-0.049-0.402-0.174-0.654c-0.066-0.119-0.157-0.256-0.285-0.311c-0.152-0.061-0.287,0.05-0.373,0.189
		c-0.159,0.299-0.227,0.663-0.222,1.034c-0.004,0.366,0.063,0.739,0.222,1.035c0.048,0.068,0.099,0.13,0.154,0.167
		c0.026,0.024,0.079,0.026,0.116,0.039c0.022,0.003,0.065-0.011,0.099-0.015c0.137-0.057,0.223-0.194,0.29-0.312
		c0.125-0.253,0.146-0.493,0.174-0.654C25.749,16.878,25.755,16.784,25.755,16.784 M25.755,16.784c0,0-0.003,0.096-0.008,0.259
		c-0.021,0.164-0.042,0.402-0.152,0.667c-0.061,0.126-0.132,0.279-0.294,0.363c-0.045,0.009-0.083,0.029-0.141,0.026
		c-0.042-0.012-0.083-0.007-0.124-0.031c-0.097-0.046-0.157-0.119-0.218-0.191c-0.208-0.312-0.273-0.71-0.284-1.094
		c0.009-0.376,0.076-0.784,0.284-1.093c0.097-0.149,0.312-0.283,0.478-0.197c0.172,0.088,0.237,0.237,0.299,0.365
		c0.111,0.265,0.131,0.503,0.152,0.667C25.751,16.688,25.755,16.784,25.755,16.784"/>
	<path clip-path="url(#SVGID_2_)" fill="#FFFFFF" d="M26.458,16.784c0,0-0.006-0.094-0.015-0.259
		c-0.028-0.161-0.049-0.402-0.177-0.654c-0.065-0.119-0.155-0.256-0.283-0.311c-0.154-0.061-0.287,0.05-0.373,0.189
		c-0.159,0.299-0.228,0.663-0.222,1.034c-0.005,0.366,0.062,0.739,0.221,1.036c0.048,0.068,0.098,0.128,0.156,0.165
		c0.026,0.024,0.076,0.026,0.113,0.039c0.024,0.003,0.067-0.011,0.1-0.013c0.138-0.058,0.222-0.195,0.29-0.314
		c0.126-0.253,0.147-0.493,0.175-0.654C26.452,16.878,26.458,16.784,26.458,16.784 M26.458,16.784c0,0-0.003,0.096-0.008,0.259
		c-0.021,0.164-0.041,0.402-0.152,0.667c-0.062,0.126-0.131,0.279-0.293,0.363c-0.048,0.009-0.083,0.029-0.143,0.026
		c-0.04-0.012-0.082-0.007-0.125-0.031c-0.094-0.046-0.156-0.119-0.216-0.191c-0.209-0.312-0.276-0.71-0.286-1.094
		c0.01-0.376,0.076-0.784,0.286-1.093c0.096-0.149,0.31-0.283,0.477-0.197c0.172,0.088,0.236,0.237,0.299,0.365
		c0.11,0.265,0.132,0.503,0.152,0.667C26.456,16.688,26.458,16.784,26.458,16.784"/>
	<path clip-path="url(#SVGID_2_)" fill="#FFFFFF" d="M27.162,16.784c0,0-0.006-0.094-0.015-0.259
		c-0.028-0.161-0.049-0.402-0.175-0.652c-0.066-0.12-0.157-0.258-0.284-0.312c-0.154-0.061-0.287,0.05-0.373,0.189
		c-0.16,0.299-0.228,0.663-0.224,1.034c-0.005,0.366,0.063,0.739,0.222,1.035c0.048,0.068,0.099,0.13,0.156,0.167
		c0.026,0.024,0.076,0.026,0.113,0.039c0.024,0.003,0.067-0.011,0.1-0.013c0.138-0.058,0.222-0.195,0.29-0.314
		c0.126-0.253,0.147-0.493,0.175-0.654C27.155,16.878,27.162,16.784,27.162,16.784 M27.162,16.784c0,0-0.003,0.096-0.008,0.259
		c-0.021,0.164-0.041,0.402-0.152,0.667c-0.061,0.126-0.131,0.279-0.293,0.363c-0.046,0.009-0.083,0.031-0.143,0.026
		c-0.04-0.012-0.082-0.007-0.123-0.031c-0.096-0.047-0.157-0.119-0.217-0.191c-0.209-0.312-0.276-0.71-0.286-1.094
		c0.008-0.376,0.076-0.784,0.286-1.093c0.096-0.149,0.31-0.283,0.477-0.197c0.172,0.088,0.236,0.239,0.299,0.365
		c0.11,0.265,0.132,0.503,0.152,0.667C27.159,16.688,27.162,16.784,27.162,16.784"/>
	<path clip-path="url(#SVGID_2_)" fill="#FFFFFF" d="M27.865,16.784c0,0-0.006-0.094-0.015-0.259
		c-0.028-0.161-0.049-0.402-0.175-0.654c-0.066-0.119-0.157-0.256-0.284-0.311c-0.154-0.061-0.287,0.05-0.373,0.189
		c-0.159,0.299-0.227,0.663-0.222,1.034c-0.004,0.366,0.063,0.739,0.222,1.036c0.047,0.066,0.098,0.128,0.154,0.165
		c0.026,0.024,0.078,0.026,0.116,0.039c0.021,0.003,0.065-0.011,0.097-0.013c0.138-0.058,0.224-0.195,0.29-0.314
		c0.126-0.253,0.147-0.493,0.175-0.654C27.858,16.878,27.865,16.784,27.865,16.784 M27.865,16.784c0,0-0.003,0.096-0.008,0.259
		c-0.02,0.164-0.041,0.402-0.152,0.667c-0.061,0.126-0.131,0.279-0.293,0.363c-0.046,0.009-0.083,0.029-0.143,0.026
		c-0.04-0.012-0.082-0.007-0.123-0.031c-0.096-0.046-0.157-0.119-0.217-0.191c-0.209-0.312-0.274-0.71-0.286-1.094
		c0.01-0.376,0.076-0.784,0.286-1.093c0.096-0.149,0.311-0.283,0.478-0.197c0.171,0.085,0.236,0.237,0.298,0.365
		c0.112,0.265,0.132,0.503,0.152,0.667C27.862,16.688,27.865,16.784,27.865,16.784"/>
	<path clip-path="url(#SVGID_2_)" fill="#FFFFFF" d="M28.568,16.784c0,0-0.006-0.094-0.015-0.259
		c-0.028-0.161-0.049-0.402-0.175-0.654c-0.066-0.119-0.157-0.256-0.284-0.311c-0.152-0.061-0.287,0.05-0.373,0.189
		c-0.159,0.299-0.227,0.663-0.222,1.034c-0.004,0.366,0.063,0.739,0.222,1.035c0.047,0.068,0.098,0.13,0.154,0.167
		c0.026,0.024,0.078,0.026,0.116,0.039c0.021,0.003,0.065-0.011,0.097-0.013c0.138-0.058,0.224-0.195,0.29-0.314
		c0.126-0.253,0.147-0.493,0.175-0.654C28.562,16.878,28.568,16.784,28.568,16.784 M28.568,16.784c0,0-0.003,0.096-0.008,0.259
		c-0.021,0.164-0.041,0.402-0.152,0.667c-0.061,0.126-0.131,0.279-0.293,0.363c-0.046,0.009-0.083,0.031-0.141,0.026
		c-0.041-0.012-0.083-0.007-0.125-0.031c-0.096-0.046-0.157-0.119-0.217-0.191c-0.209-0.312-0.274-0.71-0.286-1.094
		c0.01-0.376,0.076-0.784,0.286-1.093c0.096-0.149,0.311-0.283,0.478-0.197c0.171,0.085,0.236,0.237,0.298,0.365
		c0.112,0.265,0.132,0.503,0.152,0.667C28.565,16.688,28.568,16.784,28.568,16.784"/>
	<path clip-path="url(#SVGID_2_)" fill="#FFFFFF" d="M29.271,16.784c0,0-0.006-0.094-0.016-0.259
		c-0.028-0.161-0.048-0.402-0.174-0.654c-0.065-0.119-0.157-0.256-0.285-0.311c-0.152-0.061-0.287,0.05-0.373,0.189
		c-0.158,0.299-0.225,0.663-0.222,1.034c-0.004,0.366,0.064,0.739,0.222,1.035c0.049,0.068,0.098,0.13,0.156,0.167
		c0.027,0.024,0.077,0.026,0.114,0.039c0.022,0.003,0.066-0.011,0.099-0.013c0.137-0.058,0.222-0.195,0.289-0.314
		c0.126-0.253,0.146-0.493,0.174-0.655C29.265,16.878,29.271,16.784,29.271,16.784 M29.271,16.784c0,0-0.003,0.096-0.008,0.259
		c-0.021,0.164-0.042,0.402-0.152,0.667c-0.061,0.126-0.13,0.279-0.293,0.363c-0.046,0.009-0.082,0.031-0.141,0.026
		c-0.04-0.012-0.082-0.007-0.125-0.031c-0.095-0.047-0.157-0.119-0.216-0.191c-0.209-0.312-0.275-0.71-0.286-1.094
		c0.009-0.376,0.076-0.784,0.285-1.093c0.096-0.149,0.312-0.283,0.477-0.197c0.171,0.085,0.237,0.239,0.301,0.365
		c0.109,0.265,0.13,0.503,0.151,0.667C29.268,16.688,29.271,16.784,29.271,16.784"/>
	<path clip-path="url(#SVGID_2_)" fill="#FFFFFF" d="M29.975,16.784c0,0-0.006-0.094-0.015-0.259
		c-0.028-0.161-0.049-0.402-0.175-0.654c-0.066-0.119-0.157-0.256-0.285-0.311c-0.154-0.061-0.287,0.05-0.375,0.189
		c-0.158,0.299-0.227,0.663-0.222,1.034c-0.004,0.366,0.064,0.739,0.222,1.035c0.049,0.068,0.1,0.13,0.156,0.167
		c0.027,0.024,0.077,0.026,0.114,0.039c0.023,0.003,0.066-0.011,0.099-0.013c0.138-0.058,0.222-0.195,0.29-0.314
		c0.125-0.253,0.147-0.493,0.175-0.654C29.969,16.878,29.975,16.784,29.975,16.784 M29.975,16.784c0,0-0.003,0.096-0.008,0.259
		c-0.021,0.164-0.041,0.402-0.152,0.667c-0.061,0.126-0.131,0.279-0.293,0.363c-0.046,0.009-0.083,0.031-0.143,0.026
		c-0.039-0.012-0.082-0.007-0.124-0.031c-0.095-0.047-0.155-0.119-0.216-0.191c-0.209-0.312-0.276-0.71-0.288-1.094
		c0.01-0.376,0.078-0.784,0.288-1.093c0.096-0.149,0.309-0.283,0.477-0.197c0.171,0.085,0.235,0.237,0.299,0.365
		c0.11,0.265,0.131,0.503,0.152,0.667C29.972,16.688,29.975,16.784,29.975,16.784"/>
	<path clip-path="url(#SVGID_2_)" fill="#FFFFFF" d="M30.679,16.784c0,0-0.007-0.094-0.016-0.259
		c-0.028-0.161-0.048-0.402-0.176-0.654c-0.065-0.119-0.155-0.256-0.283-0.311c-0.154-0.061-0.287,0.05-0.373,0.189
		c-0.159,0.299-0.227,0.663-0.222,1.034c-0.004,0.366,0.063,0.739,0.222,1.036c0.048,0.066,0.098,0.128,0.154,0.165
		c0.027,0.024,0.079,0.026,0.116,0.039c0.022,0.003,0.065-0.011,0.098-0.013c0.138-0.058,0.224-0.195,0.29-0.314
		c0.126-0.253,0.147-0.493,0.175-0.654C30.672,16.878,30.679,16.784,30.679,16.784 M30.679,16.784c0,0-0.003,0.096-0.008,0.259
		c-0.02,0.164-0.041,0.402-0.152,0.667c-0.061,0.126-0.131,0.279-0.293,0.363c-0.046,0.009-0.083,0.029-0.143,0.026
		c-0.039-0.012-0.081-0.007-0.124-0.031c-0.095-0.046-0.157-0.119-0.216-0.191c-0.209-0.312-0.274-0.71-0.286-1.094
		c0.01-0.376,0.077-0.784,0.286-1.093c0.096-0.149,0.311-0.283,0.477-0.197c0.171,0.085,0.237,0.237,0.299,0.365
		c0.111,0.265,0.132,0.503,0.152,0.667C30.675,16.688,30.679,16.784,30.679,16.784"/>
	<path clip-path="url(#SVGID_2_)" fill="#FFFFFF" d="M31.382,16.784c0,0-0.007-0.094-0.016-0.259
		c-0.028-0.161-0.05-0.402-0.174-0.654c-0.066-0.119-0.158-0.256-0.286-0.311c-0.154-0.061-0.287,0.05-0.373,0.189
		c-0.159,0.299-0.227,0.663-0.222,1.034c-0.004,0.366,0.063,0.739,0.222,1.036c0.048,0.066,0.098,0.128,0.154,0.165
		c0.027,0.024,0.079,0.026,0.116,0.039c0.022,0.003,0.065-0.011,0.097-0.013c0.138-0.058,0.225-0.195,0.292-0.314
		c0.124-0.253,0.146-0.493,0.174-0.654C31.375,16.878,31.382,16.784,31.382,16.784 M31.382,16.784c0,0-0.004,0.096-0.007,0.259
		c-0.021,0.164-0.043,0.402-0.154,0.667c-0.061,0.126-0.132,0.279-0.293,0.363c-0.046,0.009-0.083,0.029-0.142,0.026
		c-0.04-0.012-0.081-0.007-0.125-0.031c-0.095-0.046-0.157-0.119-0.216-0.191c-0.209-0.312-0.274-0.71-0.286-1.094
		c0.01-0.376,0.077-0.784,0.286-1.093c0.096-0.149,0.311-0.283,0.478-0.197c0.171,0.085,0.236,0.237,0.298,0.365
		c0.111,0.265,0.134,0.503,0.154,0.667C31.378,16.688,31.382,16.784,31.382,16.784"/>
	<path clip-path="url(#SVGID_2_)" fill="#FFFFFF" d="M32.085,16.784c0,0-0.006-0.094-0.016-0.259
		c-0.028-0.161-0.049-0.402-0.174-0.654c-0.066-0.119-0.156-0.256-0.285-0.311c-0.152-0.061-0.288,0.05-0.373,0.189
		c-0.159,0.299-0.227,0.663-0.222,1.034c-0.005,0.366,0.062,0.739,0.222,1.035c0.048,0.068,0.097,0.13,0.154,0.167
		c0.026,0.024,0.079,0.026,0.116,0.039c0.021,0.003,0.062-0.011,0.097-0.013c0.138-0.058,0.225-0.195,0.291-0.314
		c0.125-0.253,0.146-0.493,0.174-0.654C32.079,16.878,32.085,16.784,32.085,16.784 M32.085,16.784c0,0-0.003,0.096-0.007,0.259
		c-0.021,0.164-0.043,0.402-0.154,0.667c-0.061,0.126-0.132,0.279-0.292,0.363c-0.046,0.009-0.084,0.031-0.142,0.026
		c-0.041-0.012-0.083-0.007-0.124-0.031c-0.096-0.046-0.157-0.119-0.218-0.191c-0.209-0.312-0.274-0.71-0.286-1.094
		c0.01-0.376,0.077-0.784,0.286-1.093c0.096-0.149,0.31-0.283,0.478-0.197c0.171,0.085,0.237,0.237,0.298,0.365
		c0.111,0.265,0.134,0.503,0.154,0.667C32.082,16.688,32.085,16.784,32.085,16.784"/>
	<path clip-path="url(#SVGID_2_)" fill="#FFFFFF" d="M32.789,16.784c0,0-0.005-0.094-0.016-0.259
		c-0.028-0.161-0.048-0.402-0.175-0.654c-0.066-0.119-0.156-0.256-0.283-0.311c-0.156-0.061-0.289,0.05-0.373,0.189
		c-0.16,0.299-0.228,0.663-0.224,1.034c-0.006,0.366,0.063,0.739,0.221,1.035c0.049,0.068,0.099,0.13,0.155,0.167
		c0.026,0.024,0.079,0.026,0.116,0.039c0.022,0.003,0.064-0.011,0.099-0.013c0.137-0.058,0.222-0.195,0.289-0.314
		c0.127-0.253,0.146-0.493,0.175-0.654C32.784,16.878,32.789,16.784,32.789,16.784 M32.789,16.784c0,0-0.002,0.096-0.008,0.259
		c-0.021,0.164-0.041,0.402-0.153,0.667c-0.06,0.126-0.131,0.279-0.293,0.363c-0.046,0.009-0.084,0.029-0.142,0.026
		c-0.041-0.012-0.081-0.007-0.124-0.031c-0.096-0.046-0.158-0.119-0.218-0.191c-0.208-0.312-0.275-0.71-0.286-1.094
		c0.011-0.376,0.078-0.784,0.286-1.093c0.098-0.149,0.311-0.283,0.478-0.197c0.171,0.085,0.237,0.237,0.299,0.365
		c0.112,0.265,0.133,0.503,0.153,0.667C32.787,16.688,32.789,16.784,32.789,16.784"/>
	<path clip-path="url(#SVGID_2_)" fill="#FFFFFF" d="M33.492,16.784c0,0-0.005-0.094-0.016-0.259
		c-0.028-0.161-0.048-0.402-0.175-0.654c-0.066-0.119-0.156-0.256-0.283-0.311c-0.156-0.061-0.289,0.05-0.373,0.189
		c-0.16,0.299-0.228,0.663-0.224,1.034c-0.004,0.366,0.063,0.739,0.224,1.036c0.046,0.066,0.096,0.128,0.152,0.165
		c0.026,0.024,0.079,0.026,0.116,0.039c0.022,0.003,0.064-0.011,0.099-0.013c0.137-0.058,0.223-0.195,0.289-0.314
		c0.127-0.253,0.146-0.493,0.175-0.654C33.487,16.878,33.492,16.784,33.492,16.784 M33.492,16.784c0,0-0.002,0.096-0.008,0.259
		c-0.021,0.164-0.041,0.402-0.153,0.667c-0.06,0.126-0.131,0.279-0.293,0.363c-0.046,0.009-0.084,0.029-0.142,0.026
		c-0.041-0.012-0.081-0.007-0.124-0.031c-0.096-0.046-0.158-0.119-0.218-0.191c-0.208-0.312-0.273-0.71-0.286-1.094
		c0.011-0.376,0.078-0.784,0.286-1.093c0.098-0.149,0.311-0.283,0.478-0.197c0.171,0.085,0.237,0.237,0.299,0.365
		c0.112,0.265,0.133,0.503,0.153,0.667C33.49,16.688,33.492,16.784,33.492,16.784"/>
	<path clip-path="url(#SVGID_2_)" fill="#FFFFFF" d="M34.195,16.784c0,0-0.005-0.094-0.016-0.259
		c-0.028-0.161-0.048-0.402-0.175-0.654c-0.066-0.119-0.156-0.256-0.283-0.311c-0.154-0.061-0.289,0.05-0.373,0.189
		c-0.16,0.299-0.228,0.663-0.224,1.034c-0.004,0.366,0.063,0.739,0.224,1.036c0.046,0.066,0.097,0.128,0.152,0.165
		c0.026,0.024,0.079,0.026,0.116,0.039c0.022,0.003,0.064-0.011,0.099-0.013c0.137-0.058,0.223-0.195,0.289-0.314
		c0.127-0.253,0.146-0.493,0.175-0.654C34.19,16.878,34.195,16.784,34.195,16.784 M34.195,16.784c0,0-0.002,0.096-0.008,0.259
		c-0.021,0.164-0.041,0.402-0.153,0.667c-0.06,0.126-0.131,0.279-0.293,0.363c-0.046,0.009-0.083,0.029-0.142,0.026
		c-0.041-0.012-0.081-0.007-0.124-0.031c-0.096-0.046-0.158-0.119-0.218-0.191c-0.208-0.312-0.273-0.71-0.286-1.094
		c0.011-0.376,0.078-0.784,0.286-1.093c0.098-0.149,0.312-0.283,0.478-0.197c0.172,0.085,0.237,0.237,0.299,0.365
		c0.112,0.265,0.133,0.503,0.153,0.667C34.193,16.688,34.195,16.784,34.195,16.784"/>
	<path clip-path="url(#SVGID_2_)" fill="#FFFFFF" d="M34.898,16.784c0,0-0.005-0.094-0.016-0.259
		c-0.028-0.161-0.048-0.402-0.175-0.654c-0.066-0.119-0.156-0.256-0.283-0.311c-0.154-0.061-0.289,0.05-0.373,0.189
		c-0.16,0.299-0.228,0.663-0.224,1.034c-0.004,0.366,0.063,0.739,0.224,1.035c0.046,0.068,0.097,0.13,0.152,0.167
		c0.026,0.024,0.079,0.026,0.116,0.039c0.022,0.003,0.064-0.011,0.099-0.013c0.137-0.058,0.223-0.195,0.289-0.314
		c0.127-0.253,0.146-0.493,0.175-0.654C34.894,16.878,34.898,16.784,34.898,16.784 M34.898,16.784c0,0-0.002,0.096-0.008,0.259
		c-0.021,0.164-0.041,0.402-0.153,0.667c-0.06,0.126-0.131,0.279-0.293,0.363c-0.046,0.009-0.083,0.031-0.14,0.026
		c-0.043-0.012-0.083-0.007-0.125-0.031c-0.097-0.046-0.158-0.119-0.219-0.191c-0.208-0.312-0.273-0.71-0.286-1.094
		c0.011-0.376,0.078-0.784,0.286-1.093c0.098-0.149,0.312-0.283,0.478-0.197c0.172,0.085,0.237,0.237,0.299,0.365
		c0.112,0.265,0.133,0.503,0.153,0.667C34.896,16.688,34.898,16.784,34.898,16.784"/>
	<path clip-path="url(#SVGID_2_)" fill="#FFFFFF" d="M35.602,16.784c0,0-0.005-0.094-0.014-0.259
		c-0.03-0.161-0.05-0.402-0.177-0.654c-0.066-0.119-0.156-0.256-0.283-0.311c-0.154-0.061-0.287,0.05-0.373,0.189
		c-0.16,0.299-0.227,0.663-0.224,1.034c-0.006,0.366,0.063,0.739,0.222,1.035c0.049,0.068,0.099,0.13,0.154,0.167
		c0.027,0.024,0.079,0.026,0.116,0.039c0.022,0.003,0.065-0.011,0.099-0.013c0.139-0.058,0.223-0.195,0.29-0.314
		c0.126-0.253,0.146-0.493,0.176-0.654C35.597,16.878,35.602,16.784,35.602,16.784 M35.602,16.784c0,0-0.002,0.096-0.008,0.259
		c-0.021,0.164-0.041,0.402-0.151,0.667c-0.061,0.126-0.133,0.279-0.295,0.363c-0.044,0.009-0.083,0.029-0.142,0.026
		c-0.041-0.012-0.081-0.007-0.123-0.031c-0.097-0.046-0.158-0.119-0.219-0.191c-0.208-0.312-0.275-0.71-0.285-1.094
		c0.01-0.376,0.077-0.784,0.285-1.093c0.098-0.149,0.312-0.283,0.478-0.197c0.172,0.085,0.236,0.237,0.301,0.365
		c0.11,0.265,0.131,0.503,0.151,0.667C35.6,16.688,35.602,16.784,35.602,16.784"/>
	<path clip-path="url(#SVGID_2_)" fill="#FFFFFF" d="M24.621,16.859c0,0-0.615,0.078-1.211,0.26
		c-0.298,0.09-0.583,0.212-0.792,0.315c-0.199,0.125-0.331,0.208-0.331,0.208s0.128-0.091,0.318-0.229
		c0.203-0.117,0.485-0.257,0.78-0.367c0.59-0.219,1.212-0.339,1.212-0.339c0.041-0.009,0.082,0.019,0.089,0.061
		c0.007,0.041-0.02,0.081-0.061,0.088C24.624,16.859,24.622,16.859,24.621,16.859"/>
	<path clip-path="url(#SVGID_2_)" fill="#FFFFFF" d="M37.766,17.791c0,0-0.488-0.379-1.04-0.67
		c-0.273-0.149-0.561-0.263-0.782-0.339c-0.229-0.052-0.381-0.085-0.381-0.085s0.155,0.024,0.387,0.063
		c0.226,0.061,0.524,0.159,0.811,0.29c0.571,0.261,1.096,0.618,1.096,0.618c0.035,0.024,0.043,0.072,0.021,0.105
		c-0.023,0.036-0.071,0.045-0.107,0.021C37.769,17.792,37.768,17.792,37.766,17.791"/>
</g>
</svg>
