<?xml version="1.0" encoding="utf-8"?>
<!-- Generator: Adobe Illustrator 16.0.0, SVG Export Plug-In . SVG Version: 6.00 Build 0)  -->
<!DOCTYPE svg PUBLIC "-//W3C//DTD SVG 1.1//EN" "http://www.w3.org/Graphics/SVG/1.1/DTD/svg11.dtd">
<svg version="1.1" id="Ebene_1" xmlns="http://www.w3.org/2000/svg" xmlns:xlink="http://www.w3.org/1999/xlink" x="0px" y="0px"
	 width="40px" height="40px" viewBox="0 0 40 40" enable-background="new 0 0 40 40" xml:space="preserve">
<path fill="#FFFFFF" d="M19.992,0C8.951,0,0,8.951,0,19.991c0,11.04,8.951,19.992,19.992,19.992
	c11.041,0,19.992-8.952,19.992-19.992C39.983,8.951,31.032,0,19.992,0z M25.255,18.188l-0.169,1.859h-3.515
	c0,5.301,0,11.842,0,11.842h-4.737c0,0,0-6.476,0-11.842h-2.369v-1.874v-2.861h2.349v-2.141c0-1.938,0.922-4.964,4.984-4.964
	l3.658,0.016v4.058c0,0-2.225,0-2.656,0s-1.048,0.215-1.048,1.138v1.894h3.764L25.255,18.188z"/>
</svg>
