<?xml version="1.0" encoding="utf-8"?>
<!-- Generator: Adobe Illustrator 16.0.0, SVG Export Plug-In . SVG Version: 6.00 Build 0)  -->
<!DOCTYPE svg PUBLIC "-//W3C//DTD SVG 1.1//EN" "http://www.w3.org/Graphics/SVG/1.1/DTD/svg11.dtd">
<svg version="1.1" id="Ebene_1" xmlns="http://www.w3.org/2000/svg" xmlns:xlink="http://www.w3.org/1999/xlink" x="0px" y="0px"
	 width="119.834px" height="141.73px" viewBox="0 0 119.834 141.73" enable-background="new 0 0 119.834 141.73"
	 xml:space="preserve">
<g>
	<path fill="#E1E1E2" d="M40.304,27.981c-6.646,0-12.055,6.585-12.055,14.687c0,8.087,5.409,14.672,12.055,14.672
		s12.044-6.585,12.044-14.672C52.349,34.566,46.95,27.981,40.304,27.981 M40.304,67.625c-12.316,0-22.341-11.201-22.341-24.958
		c0-13.772,10.025-24.973,22.341-24.973s22.332,11.201,22.332,24.973C62.636,56.425,52.62,67.625,40.304,67.625"/>
	<path fill="#E1E1E2" d="M11.574,113.75h56.606l1.13-16.564c0.231-3.311-2.858-8.535-7.026-10.072
		c-14.351-5.143-30.413-5.152-44.854,0.011c-4.128,1.526-7.213,6.756-6.986,10.062L11.574,113.75z M72.987,124.037H6.767
		c-2.697,0-4.942-2.09-5.133-4.787L0.182,97.879c-0.562-8.254,5.596-17.41,13.732-20.418c16.787-6.008,35.21-5.983,51.886-0.016
		c8.188,3.02,14.355,12.18,13.777,20.443l-1.457,21.355C77.936,121.941,75.685,124.037,72.987,124.037"/>
	<path fill="#E1E1E2" d="M11.574,113.75h56.606l1.13-16.564c0.231-3.311-2.858-8.535-7.026-10.072
		c-14.351-5.143-30.413-5.152-44.854,0.011c-4.128,1.526-7.213,6.756-6.986,10.062L11.574,113.75z M72.987,124.037H6.767
		c-2.697,0-4.942-2.09-5.133-4.787L0.182,97.879c-0.562-8.254,5.596-17.41,13.732-20.418c16.787-6.008,35.21-5.983,51.886-0.016
		c8.188,3.02,14.355,12.18,13.777,20.443l-1.457,21.355C77.936,121.941,75.685,124.037,72.987,124.037"/>
	<path fill="#E1E1E2" d="M113.049,124.037H86.68c-2.848,0-5.143-2.301-5.143-5.143c0-2.844,2.295-5.145,5.143-5.145h21.562
		l0.935-13.652c0.181-2.605-2.371-6.801-5.61-7.995c-5.757-2.06-11.839-3.165-18.037-3.271c-2.832-0.045-5.098-2.391-5.048-5.233
		c0.055-2.839,2.375-5.184,5.238-5.054c7.304,0.126,14.496,1.438,21.357,3.888c7.353,2.714,12.879,10.94,12.366,18.368
		l-1.261,18.449C117.992,121.941,115.746,124.037,113.049,124.037"/>
	<path fill="#E1E1E2" d="M92.753,42.145c-4.557,0-8.259,4.626-8.259,10.312c0,5.681,3.702,10.307,8.259,10.307
		c4.561,0,8.256-4.626,8.256-10.307C101.009,46.771,97.313,42.145,92.753,42.145 M92.753,73.051
		c-10.228,0-18.545-9.238-18.545-20.594c0-11.356,8.317-20.599,18.545-20.599c10.226,0,18.543,9.242,18.543,20.599
		C111.296,63.813,102.979,73.051,92.753,73.051"/>
</g>
</svg>
