<?xml version="1.0" encoding="utf-8"?>
<!-- Generator: Adobe Illustrator 16.0.0, SVG Export Plug-In . SVG Version: 6.00 Build 0)  -->
<!DOCTYPE svg PUBLIC "-//W3C//DTD SVG 1.1//EN" "http://www.w3.org/Graphics/SVG/1.1/DTD/svg11.dtd">
<svg version="1.1" id="Ebene_1" xmlns="http://www.w3.org/2000/svg" xmlns:xlink="http://www.w3.org/1999/xlink" x="0px" y="0px"
	 width="40px" height="40px" viewBox="0 0 40 40" enable-background="new 0 0 40 40" xml:space="preserve">
<path fill="#FFFFFF" d="M19.999,0.174c-10.993,0-19.903,8.911-19.903,19.903c0,10.994,8.91,19.905,19.903,19.905
	c10.992,0,19.903-8.911,19.903-19.905C39.902,9.085,30.991,0.174,19.999,0.174z M14.221,18.38v12.475H8.72V19.309v-4.171h5.501
	V18.38z M11.471,12.779c-1.519,0-2.751-1.231-2.751-2.75s1.232-2.751,2.751-2.751s2.75,1.232,2.75,2.751S12.99,12.779,11.471,12.779
	z M32.296,22.219v8.636H27.58v-7.658c0-1.826-0.201-4.175-2.706-4.175c-2.541,0-2.929,1.988-2.929,4.043v7.79h-4.58V18.153v-3.016
	h4.382v2.121h0.067c0.652-1.239,2.248-2.121,4.623-2.121c4.005,0,5.366,1.863,5.738,4.826
	C32.263,20.657,32.297,21.412,32.296,22.219L32.296,22.219z"/>
</svg>
