<?xml version="1.0" encoding="utf-8"?>
<!-- Generator: Adobe Illustrator 16.0.0, SVG Export Plug-In . SVG Version: 6.00 Build 0)  -->
<!DOCTYPE svg PUBLIC "-//W3C//DTD SVG 1.1//EN" "http://www.w3.org/Graphics/SVG/1.1/DTD/svg11.dtd">
<svg version="1.1" id="Ebene_1" xmlns="http://www.w3.org/2000/svg" xmlns:xlink="http://www.w3.org/1999/xlink" x="0px" y="0px"
	 width="20px" height="20px" viewBox="0 0 20 20" enable-background="new 0 0 20 20" xml:space="preserve">
<g>
	<g>
		<path fill="#000" d="M9.271,5.837C9.099,5.665,9.013,5.439,9.013,5.158s0.086-0.507,0.257-0.679
			C9.442,4.308,9.668,4.223,9.95,4.223c0.28,0,0.506,0.085,0.678,0.257s0.257,0.398,0.257,0.679S10.8,5.665,10.628,5.837
			C10.456,6.008,10.23,6.094,9.95,6.094C9.668,6.094,9.442,6.008,9.271,5.837z M10.573,15.392H9.325v-7.8h1.248V15.392z"/>
	</g>
	<g>
		<path fill="#000" d="M10,19.931c-5.475,0-9.93-4.455-9.93-9.93C0.07,4.525,4.525,0.07,10,0.07c5.476,0,9.931,4.455,9.931,9.931
			C19.931,15.476,15.476,19.931,10,19.931z M10,0.937c-4.997,0-9.062,4.066-9.062,9.064c0,4.997,4.065,9.062,9.062,9.062
			c4.998,0,9.063-4.065,9.063-9.062C19.063,5.003,14.998,0.937,10,0.937z"/>
	</g>
</g>
</svg>
