<?xml version="1.0" encoding="utf-8"?>
<!-- Generator: Adobe Illustrator 16.0.0, SVG Export Plug-In . SVG Version: 6.00 Build 0)  -->
<!DOCTYPE svg PUBLIC "-//W3C//DTD SVG 1.1//EN" "http://www.w3.org/Graphics/SVG/1.1/DTD/svg11.dtd">
<svg version="1.1" id="Ebene_1" xmlns="http://www.w3.org/2000/svg" xmlns:xlink="http://www.w3.org/1999/xlink" x="0px" y="0px"
	 width="119.834px" height="141.73px" viewBox="0 0 119.834 141.73" enable-background="new 0 0 119.834 141.73"
	 xml:space="preserve">
<g>
	<defs>
		<rect id="SVGID_1_" width="119.834" height="141.73"/>
	</defs>
	<clipPath id="SVGID_2_">
		<use xlink:href="#SVGID_1_"  overflow="visible"/>
	</clipPath>
	<path clip-path="url(#SVGID_2_)" fill="#E1E1E2" d="M59.917,11.689c-26.585,0-48.228,21.631-48.228,48.222
		c0,20.521,31.904,53.499,48.228,68.189c16.323-14.69,48.228-47.668,48.228-68.189C108.145,33.32,86.514,11.689,59.917,11.689
		 M59.917,141.73c-1.345,0-2.694-0.468-3.787-1.404C50.385,135.429,0,91.562,0,59.911C0,26.876,26.885,0,59.917,0
		c33.034,0,59.917,26.876,59.917,59.911c0,31.65-50.374,75.518-56.131,80.415C62.622,141.263,61.261,141.73,59.917,141.73"/>
	<path clip-path="url(#SVGID_2_)" fill="#E1E1E2" d="M59.917,42.378c-9.669,0-17.534,7.865-17.534,17.533
		c0,9.669,7.865,17.531,17.534,17.531c9.665,0,17.533-7.862,17.533-17.531C77.45,50.243,69.582,42.378,59.917,42.378 M59.917,89.13
		c-16.106,0-29.223-13.104-29.223-29.219c0-16.112,13.116-29.222,29.223-29.222c16.117,0,29.222,13.11,29.222,29.222
		C89.139,76.026,76.034,89.13,59.917,89.13"/>
</g>
</svg>
