<?xml version="1.0" encoding="utf-8"?>
<!-- Generator: Adobe Illustrator 16.0.0, SVG Export Plug-In . SVG Version: 6.00 Build 0)  -->
<!DOCTYPE svg PUBLIC "-//W3C//DTD SVG 1.1//EN" "http://www.w3.org/Graphics/SVG/1.1/DTD/svg11.dtd">
<svg version="1.1" id="Ebene_1" xmlns="http://www.w3.org/2000/svg" xmlns:xlink="http://www.w3.org/1999/xlink" x="0px" y="0px"
	 width="40px" height="40px" viewBox="0 0 40 40" enable-background="new 0 0 40 40" xml:space="preserve">
<g>
	<polygon fill="currentColor" points="17.51,16.398 17.51,18.02 17.512,23.352 23.923,19.889 20.401,17.972 	"/>
	<path fill="currentColor" d="M19.962,0.046c-11.068,0-20.039,8.972-20.039,20.039c0,11.066,8.971,20.038,20.039,20.038
		C31.028,40.123,40,31.151,40,20.085C40,9.018,31.028,0.046,19.962,0.046z M31.83,19.544v1.531c0,2.005-0.238,4.006-0.238,4.006
		s-0.231,1.706-0.942,2.457c-0.903,0.986-1.915,0.99-2.377,1.049c-3.324,0.248-8.311,0.258-8.311,0.258s-6.171-0.06-8.07-0.249
		c-0.526-0.103-1.713-0.071-2.618-1.058c-0.71-0.75-0.941-2.456-0.941-2.456s-0.238-2.002-0.238-4.007v-1.636v-0.241
		c0-2.003,0.238-4.005,0.238-4.005s0.231-1.707,0.941-2.458c0.905-0.985,1.915-0.991,2.379-1.046c3.319-0.25,8.304-0.25,8.304-0.25
		h0.011c0,0,4.98,0,8.305,0.249c0.462,0.057,1.474,0.063,2.377,1.047c0.711,0.75,0.942,2.458,0.942,2.458s0.238,2.003,0.238,4.006
		V19.544z"/>
</g>
</svg>
