<?xml version="1.0" encoding="utf-8"?>
<!-- Generator: Adobe Illustrator 16.0.0, SVG Export Plug-In . SVG Version: 6.00 Build 0)  -->
<!DOCTYPE svg PUBLIC "-//W3C//DTD SVG 1.1//EN" "http://www.w3.org/Graphics/SVG/1.1/DTD/svg11.dtd">
<svg version="1.1" id="Ebene_1" xmlns="http://www.w3.org/2000/svg" xmlns:xlink="http://www.w3.org/1999/xlink" x="0px" y="0px"
	 width="119.834px" height="141.73px" viewBox="0 0 119.834 141.73" enable-background="new 0 0 119.834 141.73"
	 xml:space="preserve">
<path fill="#E1E1E2" d="M59.875,11.324c-32.836,0-59.542,26.71-59.542,59.542s26.706,59.541,59.542,59.541
	c32.836,0,59.542-26.709,59.542-59.541S92.711,11.324,59.875,11.324z M33.526,92.592h23.842v27.66
	c-2.796-0.141-5.534-0.48-8.188-1.066C42.252,114.242,36.641,104.666,33.526,92.592z M10.361,70.866
	c0-5.874,1.082-11.485,2.967-16.717h13.994c-0.97,5.291-1.498,10.902-1.498,16.717s0.528,11.423,1.498,16.711H13.329
	C11.443,82.348,10.361,76.736,10.361,70.866z M30.838,70.866c0-5.854,0.568-11.463,1.567-16.717h24.963v33.428H32.405
	C31.407,82.323,30.838,76.717,30.838,70.866z M49.181,22.546c2.653-0.587,5.392-0.928,8.188-1.067v27.656H33.526
	C36.646,37.062,42.252,27.487,49.181,22.546z M62.382,21.479c2.791,0.14,5.528,0.48,8.182,1.065
	c6.925,4.941,12.535,14.516,15.65,26.591H62.382V21.479z M104.296,49.135H91.335c-2.252-9.11-5.881-17.011-10.435-23.031
	C91.075,30.903,99.342,39.048,104.296,49.135z M87.335,54.149c0.999,5.254,1.567,10.863,1.567,16.717
	c0,5.851-0.568,11.458-1.567,16.711H62.382V54.149H87.335z M86.214,92.592c-3.115,12.076-8.726,21.654-15.65,26.596
	c-2.653,0.584-5.391,0.924-8.182,1.064v-27.66H86.214z M80.9,115.627c4.559-6.023,8.183-13.926,10.435-23.035h12.967
	C99.346,102.68,91.075,110.83,80.9,115.627z M92.418,87.577c0.969-5.288,1.498-10.896,1.498-16.711s-0.529-11.426-1.498-16.717
	h14.004c1.885,5.231,2.968,10.843,2.968,16.717c0,5.871-1.083,11.482-2.968,16.711H92.418z M38.839,26.109
	c-4.559,6.022-8.182,13.921-10.434,23.026H15.454C20.404,39.053,28.669,30.91,38.839,26.109z M15.449,92.592h12.957
	c2.252,9.107,5.875,17.008,10.434,23.031C28.665,110.822,20.404,102.676,15.449,92.592z"/>
</svg>
