<?xml version="1.0" encoding="utf-8"?>
<!-- Generator: Adobe Illustrator 16.0.0, SVG Export Plug-In . SVG Version: 6.00 Build 0)  -->
<!DOCTYPE svg PUBLIC "-//W3C//DTD SVG 1.1//EN" "http://www.w3.org/Graphics/SVG/1.1/DTD/svg11.dtd">
<svg version="1.1" id="Ebene_1" xmlns="http://www.w3.org/2000/svg" xmlns:xlink="http://www.w3.org/1999/xlink" x="0px" y="0px"
	 width="60px" height="60px" viewBox="0 0 60 60" enable-background="new 0 0 60 60" xml:space="preserve">
<rect x="0" fill="#B41C21" width="60" height="60"/>
<g>
	<defs>
		<rect id="SVGID_1_" x="-0.094" width="60.188" height="60.188"/>
	</defs>
	<clipPath id="SVGID_2_">
		<use xlink:href="#SVGID_1_"  overflow="visible"/>
	</clipPath>
	<path clip-path="url(#SVGID_2_)" fill="#FFFFFF" d="M35.176,44.016c0,4.416-4.113,11.833-5.176,11.833
		c-1.179,0-5.175-7.417-5.175-11.833c0-4.414,2.317-6.349,5.175-6.349C32.857,37.667,35.176,39.602,35.176,44.016"/>
	<path clip-path="url(#SVGID_2_)" fill="none" stroke="#B3241E" stroke-width="0.412" stroke-miterlimit="10" d="M35.176,44.016
		c0,4.416-4.113,11.833-5.176,11.833c-1.179,0-5.175-7.417-5.175-11.833c0-4.414,2.317-6.349,5.175-6.349
		C32.857,37.667,35.176,39.602,35.176,44.016z"/>
	<path clip-path="url(#SVGID_2_)" fill="#B41C21" d="M33.84,45.496c0,3.815-3.052,10.227-3.839,10.227
		c-0.875,0-3.84-6.411-3.84-10.227c0-3.816,1.72-5.489,3.84-5.489C32.122,40.007,33.84,41.68,33.84,45.496"/>
	<path clip-path="url(#SVGID_2_)" fill="#FFFFFF" d="M31.486,42.705c0.364,1.439,1.864,3.727,2.094,3.691
		c0.254-0.038,0.501-2.587,0.135-4.026c-0.365-1.439-1.024-1.995-1.64-1.902S31.119,41.264,31.486,42.705"/>
	<path clip-path="url(#SVGID_2_)" fill="#FFFFFF" d="M26.518,42.646c-0.296,1.683,0.414,4.637,0.727,4.67
		c0.35,0.038,2.022-2.671,2.318-4.354c0.298-1.683-0.254-2.49-1.097-2.58C27.626,40.296,26.815,40.963,26.518,42.646"/>
	<path clip-path="url(#SVGID_2_)" fill="#FFFFFF" d="M27.396,43.507c0,2.691,2.02,7.211,2.54,7.211c0.58,0,2.54-4.52,2.54-7.211
		c0-2.689-1.136-3.868-2.54-3.868C28.533,39.639,27.396,40.817,27.396,43.507"/>
	<path clip-path="url(#SVGID_2_)" fill="#B41C21" d="M36.147,40.411c1.658-3.158,2.215-17.137,2.215-22.036
		c0-9.6-7.463-14.037-8.362-14.037c-0.88,0-8.362,4.438-8.362,14.037c0,4.899,0.556,18.878,2.214,22.036H36.147z"/>
	<path clip-path="url(#SVGID_2_)" fill="none" stroke="#FFFFFF" stroke-width="0.412" stroke-miterlimit="10" d="M36.147,40.411
		c1.658-3.158,2.215-17.137,2.215-22.036c0-9.6-7.463-14.037-8.362-14.037c-0.88,0-8.362,4.438-8.362,14.037
		c0,4.899,0.556,18.878,2.214,22.036H36.147z"/>
	<path clip-path="url(#SVGID_2_)" fill="#B41C21" d="M19.953,48.171c-0.056,0-0.113-0.015-0.162-0.047
		c-0.099-0.062-0.154-0.174-0.143-0.288L21.02,33.99c0.009-0.091,0.058-0.174,0.135-0.225l2.516-1.687
		c0.05-0.033,0.11-0.052,0.17-0.052c0.05,0,0.099,0.013,0.145,0.036c0.1,0.055,0.162,0.158,0.161,0.271
		c-0.021,3.47,0.609,6.856,0.794,7.771h0.621c0.17,0,0.307,0.137,0.307,0.308v4.024c0,0.107-0.055,0.207-0.146,0.263l-5.609,3.427
		C20.064,48.156,20.008,48.171,19.953,48.171"/>
	<path clip-path="url(#SVGID_2_)" fill="#FFFFFF" d="M23.841,31.721c-0.119,0-0.238,0.035-0.34,0.104l-2.518,1.687
		c-0.151,0.102-0.25,0.267-0.267,0.449l-1.371,13.842c-0.023,0.233,0.086,0.457,0.283,0.58c0.1,0.062,0.212,0.094,0.327,0.094
		c0.11,0,0.22-0.028,0.317-0.088l5.611-3.428c0.18-0.112,0.292-0.31,0.292-0.523v-4.024c0-0.34-0.274-0.613-0.612-0.613h-0.372
		c-0.225-1.166-0.758-4.279-0.739-7.464c0.001-0.225-0.122-0.436-0.322-0.541C24.04,31.745,23.94,31.721,23.841,31.721
		 M23.841,32.333c-0.025,4.126,0.851,8.08,0.851,8.08h0.871v4.024l-5.608,3.427l1.37-13.844L23.841,32.333z"/>
	<path clip-path="url(#SVGID_2_)" fill="#B41C21" d="M40.046,48.171c-0.055,0-0.11-0.015-0.158-0.044L34.278,44.7
		c-0.092-0.056-0.148-0.155-0.148-0.263v-4.024c0-0.171,0.137-0.308,0.307-0.308h0.624c0.183-0.915,0.814-4.302,0.791-7.771
		c0-0.112,0.063-0.216,0.162-0.271c0.046-0.023,0.096-0.036,0.146-0.036c0.059,0,0.119,0.019,0.171,0.052l2.516,1.687
		c0.076,0.051,0.125,0.134,0.136,0.225l1.369,13.846c0.012,0.114-0.044,0.226-0.143,0.288
		C40.159,48.156,40.104,48.171,40.046,48.171"/>
	<path clip-path="url(#SVGID_2_)" fill="#FFFFFF" d="M36.159,31.721c-0.1,0-0.2,0.024-0.29,0.074
		c-0.201,0.105-0.323,0.316-0.322,0.541c0.019,3.185-0.514,6.298-0.739,7.464h-0.371c-0.338,0-0.612,0.273-0.612,0.613v4.024
		c0,0.214,0.111,0.411,0.293,0.523l5.609,3.428c0.099,0.06,0.209,0.088,0.319,0.088c0.113,0,0.226-0.031,0.326-0.094
		c0.197-0.123,0.307-0.347,0.283-0.58l-1.371-13.842c-0.018-0.183-0.115-0.348-0.268-0.449l-2.518-1.687
		C36.397,31.756,36.278,31.721,36.159,31.721 M36.159,32.333l2.517,1.688l1.37,13.844l-5.609-3.427v-4.024h0.872
		C35.309,40.413,36.184,36.459,36.159,32.333"/>
	<path clip-path="url(#SVGID_2_)" fill="#FFFFFF" d="M33.592,6.767C32.786,7.541,31.479,8.044,30,8.044
		c-1.478,0-2.781-0.502-3.588-1.273c-2.278,2.24-4.773,6.058-4.773,11.602c0,1.815,0.076,4.879,0.255,8.175
		c2.635,0.807,5.579,1.26,8.687,1.26c2.651,0,5.182-0.333,7.506-0.931c0.193-3.42,0.275-6.629,0.275-8.504
		C38.362,12.826,35.869,9.006,33.592,6.767"/>
	<path clip-path="url(#SVGID_2_)" fill="#B41C21" d="M33.564,18.812c0,1.968-1.597,3.563-3.564,3.563
		c-1.969,0-3.563-1.595-3.563-3.563c0-1.97,1.595-3.563,3.563-3.563C31.968,15.248,33.564,16.842,33.564,18.812"/>
	
		<circle clip-path="url(#SVGID_2_)" fill="none" stroke="#FFFFFF" stroke-width="0.412" stroke-miterlimit="10" cx="30.001" cy="18.812" r="3.564"/>
	<path clip-path="url(#SVGID_2_)" fill="#B41C21" d="M32.373,28.77c0,1.311-1.064,2.372-2.373,2.372
		c-1.31,0-2.374-1.061-2.374-2.372c0-1.312,1.063-2.373,2.374-2.373C31.309,26.397,32.373,27.458,32.373,28.77"/>
	
		<circle clip-path="url(#SVGID_2_)" fill="none" stroke="#FFFFFF" stroke-width="0.412" stroke-miterlimit="10" cx="30" cy="28.77" r="2.373"/>
</g>
</svg>
