<?xml version="1.0" encoding="utf-8"?>
<!-- Generator: Adobe Illustrator 16.0.0, SVG Export Plug-In . SVG Version: 6.00 Build 0)  -->
<!DOCTYPE svg PUBLIC "-//W3C//DTD SVG 1.1//EN" "http://www.w3.org/Graphics/SVG/1.1/DTD/svg11.dtd">
<svg version="1.1" id="Ebene_1" xmlns="http://www.w3.org/2000/svg" xmlns:xlink="http://www.w3.org/1999/xlink" x="0px" y="0px"
	 width="119.834px" height="141.73px" viewBox="0 0 119.834 141.73" enable-background="new 0 0 119.834 141.73"
	 xml:space="preserve">
<g>
	<path fill="#E1E1E2" d="M73.883,86.961c-1.342-1.232-2.869-2.17-4.572-2.818c-1.716-0.656-3.99-1.375-6.883-2.16V67.517
		c2.936,0.95,4.783,2.874,5.541,5.77c0.68,2.457,2.143,3.688,4.419,3.688c1.208,0,2.231-0.422,3.077-1.27
		c0.846-0.842,1.274-1.852,1.274-3.006c0-1.043-0.287-2.197-0.856-3.445c-0.571-1.253-1.375-2.473-2.429-3.661
		c-1.309-1.543-2.857-2.708-4.64-3.473c-1.77-0.769-3.889-1.275-6.387-1.527v-3.759c0-1.907-0.733-2.853-2.219-2.853
		c-1.461,0-2.188,0.979-2.188,2.924v3.688c-4.803,0.412-8.474,1.901-11.013,4.445c-2.539,2.55-3.803,5.826-3.803,9.817
		c0,3.061,0.649,5.559,1.946,7.512c1.297,1.949,2.99,3.445,5.078,4.506c2.088,1.049,4.682,2.012,7.792,2.863v16.184
		c-1.549-0.445-2.803-1.078-3.736-1.912c-0.946-0.842-1.649-1.76-2.111-2.77c-0.462-1.012-1.012-2.463-1.638-4.363
		c-0.275-0.891-0.78-1.566-1.483-2.061c-0.727-0.479-1.605-0.732-2.661-0.732c-1.297,0-2.374,0.453-3.242,1.352
		c-0.868,0.885-1.308,1.887-1.308,3.008c0,1.504,0.319,3.043,0.979,4.604c0.648,1.566,1.648,3.072,3,4.529
		c1.374,1.445,3.055,2.654,5.078,3.627c2.033,0.973,4.408,1.615,7.122,1.914v4.086c0,1.066,0.166,1.859,0.506,2.363
		c0.33,0.512,0.923,0.771,1.759,0.771c0.901,0,1.483-0.32,1.747-0.939c0.274-0.627,0.395-1.629,0.395-2.99v-3.363
		c3.322-0.27,6.188-1.145,8.607-2.605c2.407-1.457,4.23-3.342,5.475-5.656c1.229-2.301,1.857-4.779,1.857-7.424
		c0-2.109-0.387-4.049-1.153-5.824C76.432,89.763,75.312,88.23,73.883,86.961z M58.021,80.701c-2.088-0.77-3.638-1.621-4.66-2.557
		c-1.022-0.939-1.539-2.33-1.539-4.16c0-1.928,0.549-3.368,1.638-4.318c1.087-0.945,2.615-1.72,4.561-2.292V80.701z M67.87,103.447
		c-1.274,1.418-3.089,2.352-5.442,2.812V91.021c2.42,0.77,4.243,1.703,5.487,2.809c1.241,1.104,1.867,2.666,1.867,4.67
		C69.782,100.386,69.135,102.041,67.87,103.447z"/>
	<path fill="#E1E1E2" d="M112.317,41.139c0-5.062-3.099-10.689-7.387-13.388l-6.818-4.296c2.512-1.973,4.715-4.021,6.479-6.068
		c5.582-6.469,5.155-10.738,3.824-13.184c-1.342-2.439-4.705-5.083-13.167-3.88c-5.684,0.819-12.431,3.253-18.992,6.853
		c-0.676,0.371-1.136,0.978-1.339,1.661L67.87,4.395c-4.31-2.715-11.211-2.715-15.52,0L15.266,27.751
		c-4.275,2.698-7.386,8.326-7.386,13.388l0.011,89.314c0,6.203,5.056,11.254,11.255,11.254h81.927
		c6.21,0,11.256-5.051,11.256-11.254L112.317,41.139z M96.052,5.895c4.395-0.621,6.912,0.088,7.429,1.012
		c0.505,0.928-0.262,3.456-3.143,6.803c-1.898,2.201-4.404,4.422-7.312,6.538L79.59,11.781C85.374,8.687,91.192,6.595,96.052,5.895z
		 M101.062,130.453H19.146l-0.012-89.314c0-1.154,1.154-3.253,2.133-3.87l37.083-23.355c0.286-0.176,0.957-0.368,1.758-0.368
		c0.814,0,1.485,0.192,1.76,0.368l20.25,12.761c-6.072,2.871-11.177,4.179-14.811,4.48c-1.111-2.904-3.916-4.973-7.199-4.981
		c-4.275,0-7.737,3.462-7.726,7.738c-0.011,4.264,3.451,7.716,7.726,7.727c3.255,0,6.026-2.023,7.164-4.869
		c6.019-0.39,13.477-2.925,20.401-6.593l11.255,7.093c0.979,0.616,2.132,2.715,2.132,3.87V130.453z"/>
</g>
</svg>
