<?xml version="1.0" encoding="utf-8"?>
<!-- Generator: Adobe Illustrator 16.0.0, SVG Export Plug-In . SVG Version: 6.00 Build 0)  -->
<!DOCTYPE svg PUBLIC "-//W3C//DTD SVG 1.1//EN" "http://www.w3.org/Graphics/SVG/1.1/DTD/svg11.dtd">
<svg version="1.1" id="Ebene_1" xmlns="http://www.w3.org/2000/svg" xmlns:xlink="http://www.w3.org/1999/xlink" x="0px" y="0px"
	 width="480.491px" height="288.56px" viewBox="388.394 0.002 480.491 288.56"
	 enable-background="new 388.394 0.002 480.491 288.56" xml:space="preserve">
<g>
	<polyline fill="#FFFFFF" points="487.715,50.286 516.802,184.532 518.597,188.166 523.107,191.765 627.999,234.774 
		630.398,234.879 633.192,234.326 635.956,233.673 759.6,168.803 760.359,167.702 761.467,166.153 762.053,163.479 761.903,160.463 
		729.489,10.543 728.448,7.624 727.688,6.451 726.588,5.368 725.008,4.626 723.207,4.118 719.624,3.975 605.857,0.002 
		601.119,0.917 594.065,1.994 492.722,37.645 490.293,38.889 488.576,40.63 487.547,42.694 487.146,44.609 486.996,46.314 
		487.715,50.286 	"/>
	<polyline fill="#C31723" points="488.408,53.451 516.587,183.568 517.215,186.219 518.872,188.911 521.193,190.909 
		523.562,192.028 626.449,234.206 627.4,233.73 627.981,233.057 628.328,231.657 628.376,228.831 627.939,225.836 627.341,223.054 
		594.263,70.337 593.539,67.486 592.073,64.657 590.141,63.042 586.868,61.863 493.619,45.536 491.514,45.488 490.316,45.584 
		489.306,45.829 488.42,46.463 487.816,47.373 487.625,47.965 487.774,50.532 488.408,53.451 	"/>
	<polyline fill="#C31723" points="755.191,171.573 641.992,230.479 640.401,230.664 639.055,230.359 637.494,229.27 
		636.459,228.217 635.525,226.333 634.107,220.38 601.538,71.04 601.023,66.571 602.411,62.156 605.588,58.674 611.601,55.683 
		722.508,10.28 724.925,9.754 726.646,9.939 728.406,11.189 729.591,13.122 730.542,15.407 760.684,154.81 761.873,160.362 
		762.107,163.467 761.682,166.264 760.402,168.318 758.996,169.584 755.191,171.573 	"/>
	<polyline fill="#C31723" points="715.227,3.711 717.799,3.861 718.2,4.279 717.638,5.165 714.771,6.296 597.691,53.762 
		595.436,54.349 592.863,54.713 590.368,54.277 504.723,41.097 498.321,39.751 497.203,39.021 496.784,38.548 496.557,37.992 
		496.527,37.322 496.892,36.646 498.495,35.629 594.867,1.665 599.82,0.594 605.05,0.068 611.206,0.008 701.76,3.316 715.227,3.711 
			"/>
	<g>
		<polyline fill="#FFFFFF" points="734.473,74.331 695.741,91.294 686.569,48.868 652.337,63.418 661.52,105.841 622.597,121.905 
			630.613,158.902 669.525,142.851 678.499,184.364 712.744,169.802 703.74,128.289 742.466,111.34 734.473,74.331 		"/>
		<path fill="#8F8F8F" d="M868.006,125.794c-6.443-31.858-49.5-52.606-110.883-58.762l0.012,0.975
			c53.768,6.432,90.985,25.101,96.688,53.276c10.129,50.069-83.123,111.188-208.306,136.51
			c-125.173,25.324-234.854,5.266-244.981-44.808c-4.738-23.44,13.228-49.297,46.467-72.768l-0.006-0.048l-0.024-0.146l-1.286-0.858
			c-16.691,11.071-30.206,22.746-39.935,34.562c-13.539,16.452-19.719,33.174-16.536,48.926
			c10.918,53.979,133.378,82.475,265.586,55.723C787.019,251.634,878.925,179.77,868.006,125.794"/>
	</g>
	<polyline fill="#8F8F8F" points="429.73,128.45 445.686,139.165 447.002,140.218 450.616,160.469 478.118,119.715 429.73,128.45 	
		"/>
</g>
</svg>
