<?xml version="1.0" encoding="utf-8"?>
<!-- Generator: Adobe Illustrator 16.0.0, SVG Export Plug-In . SVG Version: 6.00 Build 0)  -->
<!DOCTYPE svg PUBLIC "-//W3C//DTD SVG 1.1//EN" "http://www.w3.org/Graphics/SVG/1.1/DTD/svg11.dtd">
<svg version="1.1" id="Ebene_1" xmlns="http://www.w3.org/2000/svg" xmlns:xlink="http://www.w3.org/1999/xlink" x="0px" y="0px"
	 width="868.883px" height="500px" viewBox="0 0 868.883 500" enable-background="new 0 0 868.883 500" xml:space="preserve">
<g>
	<polyline fill-rule="evenodd" clip-rule="evenodd" fill="#FFFFFF" points="487.715,50.286 516.802,184.532 518.597,188.166 
		523.107,191.765 627.999,234.774 630.398,234.879 633.192,234.326 635.956,233.673 759.6,168.803 760.359,167.702 761.467,166.153 
		762.053,163.479 761.903,160.463 729.489,10.543 728.448,7.624 727.688,6.451 726.588,5.368 725.008,4.626 723.207,4.118 
		719.624,3.975 605.857,0.002 601.119,0.917 594.065,1.994 492.722,37.645 490.293,38.889 488.576,40.63 487.547,42.694 
		487.146,44.609 486.996,46.314 487.715,50.286 	"/>
	<polyline fill-rule="evenodd" clip-rule="evenodd" fill="#C31723" points="488.408,53.451 516.587,183.568 517.215,186.219 
		518.872,188.911 521.193,190.909 523.562,192.028 626.449,234.206 627.4,233.73 627.981,233.057 628.328,231.657 628.376,228.831 
		627.939,225.836 627.341,223.054 594.263,70.337 593.539,67.486 592.073,64.657 590.141,63.042 586.868,61.863 493.619,45.536 
		491.514,45.488 490.316,45.584 489.306,45.829 488.42,46.463 487.816,47.373 487.625,47.965 487.774,50.532 488.408,53.451 	"/>
	<polyline fill-rule="evenodd" clip-rule="evenodd" fill="#C31723" points="755.191,171.573 641.992,230.479 640.401,230.664 
		639.055,230.359 637.494,229.27 636.459,228.217 635.525,226.333 634.107,220.38 601.538,71.04 601.023,66.571 602.411,62.156 
		605.588,58.674 611.601,55.683 722.508,10.28 724.925,9.754 726.647,9.939 728.406,11.189 729.591,13.122 730.542,15.407 
		760.684,154.81 761.873,160.362 762.107,163.467 761.682,166.264 760.402,168.318 758.996,169.584 755.191,171.573 	"/>
	<polyline fill-rule="evenodd" clip-rule="evenodd" fill="#C31723" points="715.227,3.711 717.799,3.861 718.2,4.279 717.638,5.165 
		714.771,6.296 597.691,53.762 595.436,54.349 592.863,54.713 590.368,54.277 504.723,41.097 498.321,39.751 497.203,39.021 
		496.784,38.548 496.557,37.992 496.527,37.322 496.892,36.646 498.495,35.629 594.867,1.665 599.82,0.594 605.05,0.068 
		611.206,0.008 701.76,3.316 715.227,3.711 	"/>
	<g>
		<polyline fill="#FFFFFF" points="734.473,74.331 695.741,91.294 686.569,48.868 652.337,63.418 661.52,105.841 622.597,121.905 
			630.613,158.902 669.525,142.851 678.499,184.364 712.744,169.802 703.74,128.289 742.466,111.34 734.473,74.331 		"/>
		<path fill="#8F8F8F" d="M868.006,125.794c-6.443-31.858-49.5-52.606-110.883-58.762l0.012,0.975
			c53.767,6.432,90.985,25.101,96.687,53.276c10.129,50.069-83.123,111.188-208.305,136.51
			c-125.173,25.324-234.854,5.265-244.982-44.808c-4.738-23.44,13.228-49.297,46.467-72.768l-0.006-0.048l-0.024-0.146l-1.286-0.858
			c-16.692,11.071-30.207,22.746-39.935,34.562c-13.539,16.452-19.719,33.174-16.536,48.926
			c10.918,53.979,133.378,82.475,265.586,55.723C787.019,251.634,878.925,179.77,868.006,125.794"/>
	</g>
	<polyline fill="#8F8F8F" points="429.73,128.45 445.686,139.165 447.002,140.218 450.616,160.469 478.118,119.715 429.73,128.45 	
		"/>
	<path fill="#A4A5A5" d="M118.76,269.226c-2.779-2.049-6.456-4.086-9.89-4.086c-5.723,0-8.908,3.35-8.908,7.759
		c0,4.093,3.515,7.111,10.874,12.424c7.843,5.729,12.423,10.954,12.423,18.315c0,9.07-8.585,14.957-17.739,14.957
		c-5.474,0-12.016-1.963-16.102-5.965l3.515-4.741c3.35,2.366,7.03,4.978,12.423,4.978c5.642,0,9.973-3.019,9.973-9.398
		c0-7.191-8.582-11.849-13.239-15.286c-4.741-3.67-10.057-7.188-10.057-15.283c0-7.682,7.443-13.487,16.351-13.487
		c5.967,0,10.954,2.127,14.14,5.729L118.76,269.226"/>
	<path fill="#A4A5A5" d="M176.839,260.395c4.661,15.447,9.321,30.895,13.898,48.308h0.161c4.661-17.651,9.318-33.431,14.06-49.121
		l6.377,1.134l-17.739,56.896h-7.029c-4.577-15.199-9.073-30.407-13.569-47.245h-0.161c-4.499,16.838-9.156,32.046-13.733,47.245
		h-7.029l-16.842-56.396l7.523-1.634c4.496,15.69,8.989,31.47,13.404,49.121h0.165c4.574-17.413,9.318-32.86,13.976-48.308H176.839"
		/>
	<polyline fill="#A4A5A5" points="225.844,317.61 225.844,260.395 233.771,260.395 233.771,317.61 225.844,317.61 	"/>
	<path fill="#A4A5A5" d="M282.123,269.226c-2.779-2.049-6.458-4.086-9.889-4.086c-5.723,0-8.911,3.35-8.911,7.759
		c0,4.093,3.515,7.111,10.87,12.424c7.85,5.729,12.426,10.954,12.426,18.315c0,9.07-8.585,14.957-17.738,14.957
		c-5.474,0-12.017-1.963-16.103-5.965l3.515-4.741c3.351,2.366,7.03,4.978,12.423,4.978c5.645,0,9.976-3.019,9.976-9.398
		c0-7.191-8.582-11.849-13.243-15.286c-4.741-3.67-10.054-7.188-10.054-15.283c0-7.682,7.437-13.487,16.348-13.487
		c5.968,0,10.952,2.127,14.141,5.729L282.123,269.226"/>
	<path fill="#A4A5A5" d="M332.434,269.226c-2.779-2.049-6.455-4.086-9.889-4.086c-5.722,0-8.908,3.35-8.908,7.759
		c0,4.093,3.512,7.111,10.871,12.424c7.846,5.729,12.426,10.954,12.426,18.315c0,9.07-8.585,14.957-17.738,14.957
		c-5.478,0-12.02-1.963-16.105-5.965l3.518-4.741c3.351,2.366,7.03,4.978,12.423,4.978c5.642,0,9.974-3.019,9.974-9.398
		c0-7.191-8.582-11.849-13.243-15.286c-4.741-3.67-10.054-7.188-10.054-15.283c0-7.682,7.439-13.487,16.348-13.487
		c5.968,0,10.954,2.127,14.144,5.729L332.434,269.226"/>
	<polyline fill="#C31723" points="0,418.769 0,342.483 10.575,342.483 10.575,418.769 0,418.769 	"/>
	<path fill="#C31723" d="M97.973,418.769h-8.28c-16.566-19.833-45.014-54.057-49.59-60.7h-0.215v60.7h-8.723v-76.285h7.849
		c16.785,19.833,44.9,53.18,50.021,60.813h0.222v-60.813h8.717V418.769"/>
	<path fill="#C31723" d="M185.371,418.769h-8.28c-16.569-19.833-45.014-54.057-49.591-60.7h-0.218v60.7h-8.72v-76.285h7.849
		c16.785,19.833,44.9,53.18,50.024,60.813h0.218v-60.813h8.717V418.769"/>
	<path fill="#C31723" d="M202.038,379.315c0-21.354,16.133-38.146,38.146-38.146c22.014,0,38.146,16.791,38.146,38.146
		c0,22.779-14.604,40.761-38.146,40.761C216.642,420.076,202.038,402.095,202.038,379.315 M266.669,379.315
		c0-14.274-7.631-30.512-26.485-30.512c-18.854,0-26.485,16.237-26.485,30.512c0,14.933,6.761,33.133,26.485,33.133
		C259.912,412.448,266.669,394.248,266.669,379.315L266.669,379.315L266.669,379.315z"/>
	<path fill="#C31723" d="M315.105,418.769l-28.226-75.421l10.79-1.953c7.413,20.811,14.711,41.741,22.013,65.169h0.219
		c7.628-23.428,15.477-44.358,23.216-65.169l9.479,1.305l-30.407,76.069H315.105"/>
	<path fill="#C31723" d="M390.759,342.483l28.448,76.285h-12.21l-7.844-22.447h-29.1l-8.172,22.447h-10.246l31.059-76.285H390.759
		 M396.646,388.693c-3.817-10.571-7.52-21.143-11.337-34.873h-0.215c-3.924,13.73-7.957,24.302-12.097,34.873H396.646
		L396.646,388.693L396.646,388.693z"/>
	<polyline fill="#C31723" points="443.191,418.769 443.191,350.108 418.776,350.108 418.776,342.483 478.285,342.483 
		478.285,350.108 453.763,350.108 453.763,418.769 443.191,418.769 	"/>
	<polyline fill="#C31723" points="495.014,418.769 495.014,342.483 505.584,342.483 505.584,418.769 495.014,418.769 	"/>
	<path fill="#C31723" d="M525.423,379.315c0-21.354,16.126-38.146,38.137-38.146c22.017,0,38.146,16.791,38.146,38.146
		c0,22.779-14.604,40.761-38.146,40.761C540.023,420.076,525.423,402.095,525.423,379.315 M590.051,379.315
		c0-14.274-7.634-30.512-26.491-30.512c-18.852,0-26.479,16.237-26.479,30.512c0,14.933,6.755,33.133,26.479,33.133
		C583.291,412.448,590.051,394.248,590.051,379.315L590.051,379.315L590.051,379.315z"/>
	<path fill="#C31723" d="M688.353,418.769h-8.28c-16.566-19.833-45.014-54.057-49.59-60.7h-0.216v60.7h-8.723v-76.285h7.849
		c16.788,19.833,44.9,53.18,50.021,60.813h0.222v-60.813h8.717V418.769"/>
	<polyline fill="#A4A5A5" points="347.923,447.521 327.65,447.521 327.65,469.266 347.513,469.266 347.513,474.988 327.65,474.988 
		327.65,499.021 319.721,499.021 319.721,441.808 347.923,441.808 347.923,447.521 	"/>
	<path fill="#A4A5A5" d="M364.196,469.43c0-16.021,12.094-28.609,28.609-28.609c16.507,0,28.604,12.588,28.604,28.609
		c0,17.087-10.948,30.571-28.604,30.571C375.147,500.001,364.196,486.517,364.196,469.43 M412.667,469.43
		c0-10.703-5.725-22.887-19.863-22.887c-14.143,0-19.865,12.184-19.865,22.887c0,11.199,5.07,24.85,19.865,24.85
		C407.594,494.279,412.667,480.629,412.667,469.43L412.667,469.43L412.667,469.43z"/>
	<path fill="#A4A5A5" d="M440.308,441.808h16.345c9.32,0,16.596,4.822,16.596,14.706c0,8.423-4.092,13.158-9.566,16.676
		l14.227,24.356l-8.017,2.455l-13.239-24.688h-8.418v23.707h-7.927V441.808 M448.234,469.592h4.493
		c10.141,0,12.02-7.515,12.02-12.337c0-7.032-4.415-9.733-9.728-9.733h-6.785V469.592L448.234,469.592L448.234,469.592z"/>
	<path fill="#A4A5A5" d="M500.96,441.808v34.649c0,11.852,4.415,18.07,14.634,18.07c10.709,0,14.305-8.502,14.305-16.674v-36.046
		h7.434v36.207c0,12.833-7.925,21.986-21.738,21.986c-16.105,0-22.561-8.504-22.561-23.212v-34.981H500.96"/>
	<path fill="#A4A5A5" d="M620.473,499.021h-7.927v-46.587h-0.167c-2.286,6.7-15.28,31.953-22.968,46.587h-3.188
		c-7.107-14.634-18.96-39.076-21.167-46.587h-0.168v46.587h-6.539v-57.213h8.501c7.359,15.199,14.718,30.481,21.993,46.587
		c8.089-16.105,16.177-31.388,24.193-46.587h7.437V499.021"/>
</g>
</svg>
